<?xml version="1.0" encoding="utf-8"?>
<!-- Generator: Adobe Illustrator 17.1.0, SVG Export Plug-In . SVG Version: 6.00 Build 0)  -->
<!DOCTYPE svg PUBLIC "-//W3C//DTD SVG 1.1//EN" "http://www.w3.org/Graphics/SVG/1.1/DTD/svg11.dtd">
<svg version="1.1" id="Layer_1" xmlns="http://www.w3.org/2000/svg" xmlns:xlink="http://www.w3.org/1999/xlink" x="0px" y="0px"
	 viewBox="0 0 595.3 841.9" enable-background="new 0 0 595.3 841.9" xml:space="preserve">
<g>
	<g>
		<path fill="#505C54" d="M592.4,478.5l-69-69c8.5-5.2,14-12.5,15.3-20.9c1.4-9.5-2.6-18.7-11.1-26L555,280c1-3,0.5-6.4-1.4-9
			c-1.9-2.6-4.9-4.1-8.1-4.1h-29.8c-3.4,0-6.6,1.8-8.4,4.7l-38.3,61.3l-34.4-51.6c-1.9-2.8-5-4.4-8.3-4.4h-29.8c-3.1,0-6,1.5-7.9,4
			c-1.9,2.5-2.5,5.7-1.6,8.7l16.2,56.9H273.6L326,241.6c1.5-3.1,1.4-6.7-0.4-9.7c-1.8-2.9-5-4.7-8.4-4.7h-39.7c-2.6,0-5.2,1-7,2.9
			L154,346.5c-67.2,1.8-91.5,16.9-121.4,51.7C3.5,415.1-2.8,437.9,1,453.7c4.5,18.7,22.7,30.9,47.9,31.8h62.6c-1.9,4.5-3,9.5-3,14.9
			c0,19.2,13.4,34.8,29.8,34.8c37.8,0,77.7-7.8,92.9-24.5l160,102.4c1.6,1,3.5,1.6,5.4,1.6h69.5c4.2,0,7.9-2.6,9.3-6.5
			c1.4-3.9,0.3-8.3-2.9-11L323.5,471.6c64.3-10.8,113.2-25.2,140.4-34.4l96,66.4c1.7,1.2,3.7,1.8,5.7,1.8c1.5,0,3-0.3,4.4-1
			l19.9-9.9c2.9-1.4,4.8-4.1,5.4-7.3C595.7,484,594.6,480.7,592.4,478.5z M521.3,286.8h10.5l-23.9,71.7c-9.1,2.4-20.8,0.6-28.8-4.2
			L521.3,286.8z M421.1,296.8l33.1,49.7H424l-14.2-49.7H421.1z M281.5,247.1h19.5l-49.7,99.3h-69.2L281.5,247.1z M138.3,515.3
			c-5.3,0-9.9-7-9.9-14.9s4.6-14.9,9.9-14.9c5.3,0,9.9,7,9.9,14.9S143.6,515.3,138.3,515.3z M165.8,513.8c1.5-4.1,2.3-8.7,2.3-13.4
			c0-5.4-1.1-10.4-3-14.9h26.8l22.2,14.2C207.4,504.5,191.1,511,165.8,513.8z M438.9,594.8h-39.4L182.2,455.7h91.6L438.9,594.8z
			 M303.4,454.7l-19.6-16.5c-1.8-1.5-4.1-2.3-6.4-2.3H148.3c-4.4,0-8.3,2.9-9.5,7.1c-1.2,4.2,0.5,8.8,4.2,11.2l18,11.5h-22.5
			c0,0,0,0,0,0s0,0,0,0h-89c-15.5-0.6-26.6-6.9-28.9-16.6c-2.7-11.4,6.5-24.9,23.5-34.4c1-0.6,2-1.3,2.7-2.2c4-4.7,7.8-9,11.7-12.9
			l13.5,13.5c0.9,0.9,2,1.6,3.2,2.1c1.2,0.5,2.5,0.8,3.8,0.8h19.9c5.5,0,9.9-4.5,9.9-9.9s-4.5-9.9-9.9-9.9H82.8l-9.6-9.6
			c18.2-13.1,41.2-19.4,85-20.2h303.9c9.4,8.4,20.1,9.9,33.9,9.9c5,0,9.9,0,19.9,0c3.5,2.9,3.6,6.9,3.2,9.4c-0.4,2.8-3.9,6.4-10.5,9
			l-5.6-5.6c-2.3-2.3-5.5-3.3-8.7-2.8l-59.6,9.9c-4,0.7-7.2,3.7-8.1,7.6c-0.9,3.9,0.7,8,4,10.3l12.7,8.8
			C412.6,432.6,364.3,445.5,303.4,454.7z M566.3,483.9l-104.2-72.1l30.4-5.1l76,76L566.3,483.9z"/>
	</g>
</g>
<g>
	<g>
		<path fill="#505C54" d="M148.3,396.1h-9.9c-5.5,0-9.9,4.5-9.9,9.9s4.5,9.9,9.9,9.9h9.9c5.5,0,9.9-4.5,9.9-9.9
			S153.7,396.1,148.3,396.1z"/>
	</g>
</g>
<g>
	<g>
		<path fill="#505C54" d="M197.9,396.1H188c-5.5,0-9.9,4.5-9.9,9.9s4.5,9.9,9.9,9.9h9.9c5.5,0,9.9-4.5,9.9-9.9
			S203.4,396.1,197.9,396.1z"/>
	</g>
</g>
<g>
	<g>
		<path fill="#505C54" d="M247.6,396.1h-9.9c-5.5,0-9.9,4.5-9.9,9.9s4.5,9.9,9.9,9.9h9.9c5.5,0,9.9-4.5,9.9-9.9
			S253.1,396.1,247.6,396.1z"/>
	</g>
</g>
<g>
	<g>
		<path fill="#505C54" d="M297.3,396.1h-9.9c-5.5,0-9.9,4.5-9.9,9.9s4.5,9.9,9.9,9.9h9.9c5.5,0,9.9-4.5,9.9-9.9
			S302.7,396.1,297.3,396.1z"/>
	</g>
</g>
<g>
	<g>
		<path fill="#505C54" d="M346.9,396.1H337c-5.5,0-9.9,4.5-9.9,9.9s4.5,9.9,9.9,9.9h9.9c5.5,0,9.9-4.5,9.9-9.9
			S352.4,396.1,346.9,396.1z"/>
	</g>
</g>
<g>
	<g>
		<path fill="#505C54" d="M396.6,396.1h-9.9c-5.5,0-9.9,4.5-9.9,9.9s4.5,9.9,9.9,9.9h9.9c5.5,0,9.9-4.5,9.9-9.9
			C406.5,400.6,402.1,396.1,396.6,396.1z"/>
	</g>
</g>
</svg>
