<?xml version="1.0" encoding="utf-8"?>
<!-- Generator: Adobe Illustrator 17.1.0, SVG Export Plug-In . SVG Version: 6.00 Build 0)  -->
<!DOCTYPE svg PUBLIC "-//W3C//DTD SVG 1.1//EN" "http://www.w3.org/Graphics/SVG/1.1/DTD/svg11.dtd">
<svg version="1.1" id="Layer_1" xmlns="http://www.w3.org/2000/svg" xmlns:xlink="http://www.w3.org/1999/xlink" x="0px" y="0px"
	 viewBox="0 0 595.3 841.9" enable-background="new 0 0 595.3 841.9" xml:space="preserve">
<g>
	<g>
		<g>
			<path fill="#505C54" d="M426.6,678.9H148.8c-5.5,0-9.9,4.4-9.9,9.9v19.8c0,5.5,4.4,9.9,9.9,9.9s9.9-4.4,9.9-9.9v-9.9h267.9
				c5.5,0,9.9-4.4,9.9-9.9C436.5,683.3,432.1,678.9,426.6,678.9z"/>
			<path fill="#505C54" d="M218.3,371.3c0,5.5,4.4,9.9,9.9,9.9h39.7c5.5,0,9.9-4.4,9.9-9.9v-59.5c0-5.5-4.4-9.9-9.9-9.9h-39.7
				c-5.5,0-9.9,4.4-9.9,9.9L218.3,371.3L218.3,371.3z M238.1,321.7H258v39.7h-19.8V321.7z"/>
			<path fill="#505C54" d="M129,242.4H9.9c-5.5,0-9.9,4.4-9.9,9.9v198.4c0,5.5,4.4,9.9,9.9,9.9s9.9-4.4,9.9-9.9V262.2H129
				c5.5,0,9.9-4.4,9.9-9.9S134.5,242.4,129,242.4z"/>
			<path fill="#505C54" d="M476.2,609.4c0,5.5,4.4,9.9,9.9,9.9h39.7c5.5,0,9.9-4.4,9.9-9.9v-59.5c0-5.5-4.4-9.9-9.9-9.9h-39.7
				c-5.5,0-9.9,4.4-9.9,9.9V609.4z M496.1,559.8h19.8v39.7h-19.8V559.8z"/>
			<path fill="#505C54" d="M49.6,480.5c-49,0-49.6,127.7-49.6,129c0,24,17.1,44,39.7,48.6v50.6c0,5.5,4.4,9.9,9.9,9.9
				s9.9-4.4,9.9-9.9v-50.6c22.6-4.6,39.7-24.6,39.7-48.6C99.2,608.2,98.6,480.5,49.6,480.5z M49.6,639.2
				c-16.4,0-29.8-13.4-29.8-29.8c0-49.4,13.3-109.1,29.8-109.1S79.4,560,79.4,609.4C79.4,625.9,66,639.2,49.6,639.2z"/>
			<path fill="#505C54" d="M109.1,420.9H69.4c-5.5,0-9.9,4.4-9.9,9.9v19.8c0,5.5,4.4,9.9,9.9,9.9s9.9-4.4,9.9-9.9v-9.9h19.8v49.6
				c0,5.5,4.4,9.9,9.9,9.9c5.5,0,9.9-4.4,9.9-9.9v-59.5C119.1,425.4,114.6,420.9,109.1,420.9z"/>
			<path fill="#505C54" d="M486.1,381.3h39.7c5.5,0,9.9-4.4,9.9-9.9v-59.5c0-5.5-4.4-9.9-9.9-9.9h-39.7c-5.5,0-9.9,4.4-9.9,9.9v59.5
				C476.2,376.8,480.7,381.3,486.1,381.3z M496.1,321.7h19.8v39.7h-19.8V321.7z"/>
			<path fill="#505C54" d="M109.1,301.9H69.4c-5.5,0-9.9,4.4-9.9,9.9v59.5c0,5.5,4.4,9.9,9.9,9.9h39.7c5.5,0,9.9-4.4,9.9-9.9v-59.5
				C119.1,306.3,114.6,301.9,109.1,301.9z M99.2,361.4H79.4v-39.7h19.8L99.2,361.4L99.2,361.4z"/>
			<path fill="#505C54" d="M317.5,371.3c0,5.5,4.4,9.9,9.9,9.9h39.7c5.5,0,9.9-4.4,9.9-9.9v-59.5c0-5.5-4.4-9.9-9.9-9.9h-39.7
				c-5.5,0-9.9,4.4-9.9,9.9L317.5,371.3L317.5,371.3z M337.3,321.7h19.8v39.7h-19.8L337.3,321.7L337.3,321.7z"/>
			<path fill="#505C54" d="M585.4,242.4H466.3c-5.5,0-9.9,4.4-9.9,9.9c0,5.5,4.4,9.9,9.9,9.9h109.1v398.7c-3.1-1.1-6.4-1.8-9.9-1.8
				c-1.7,0-3.4,0.1-5.1,0.4c-6.8-12.3-19.9-20.3-34.6-20.3c-14.7,0-27.7,8-34.6,20.3c-1.7-0.3-3.4-0.4-5.1-0.4
				c-16.4,0-29.8,13.4-29.8,29.8c0,16.4,13.4,29.8,29.8,29.8h79.4c16.4,0,29.8-13.4,29.8-29.8V252.3
				C595.3,246.8,590.8,242.4,585.4,242.4z M565.5,698.7h-79.4c-5.5,0-9.9-4.5-9.9-9.9s4.5-9.9,9.9-9.9c1.9,0,3.7,0.5,5.4,1.6
				c2.7,1.7,6.1,2.1,9.1,0.9c3-1.2,5.2-3.8,5.9-7c2.1-9,10-15.4,19.3-15.4c9.2,0,17.2,6.3,19.3,15.4c0.7,3.1,2.9,5.7,5.9,7
				c3,1.2,6.4,0.9,9.1-0.9c6.5-4.2,15.3,0.9,15.3,8.3C575.4,694.3,571,698.7,565.5,698.7z"/>
			<path fill="#505C54" d="M327.4,262.2h39.7c5.5,0,9.9-4.4,9.9-9.9v-59.5c0-5.5-4.4-9.9-9.9-9.9h-39.7c-5.5,0-9.9,4.4-9.9,9.9v59.5
				C317.5,257.8,321.9,262.2,327.4,262.2z M337.3,202.7h19.8v39.7h-19.8L337.3,202.7L337.3,202.7z"/>
			<path fill="#505C54" d="M317.5,490.4c0,5.5,4.4,9.9,9.9,9.9h39.7c5.5,0,9.9-4.4,9.9-9.9v-59.5c0-5.5-4.4-9.9-9.9-9.9h-39.7
				c-5.5,0-9.9,4.4-9.9,9.9L317.5,490.4L317.5,490.4z M337.3,440.8h19.8v39.7h-19.8L337.3,440.8L337.3,440.8z"/>
			<path fill="#505C54" d="M228.2,262.2h39.7c5.5,0,9.9-4.4,9.9-9.9v-59.5c0-5.5-4.4-9.9-9.9-9.9h-39.7c-5.5,0-9.9,4.4-9.9,9.9v59.5
				C218.3,257.8,222.7,262.2,228.2,262.2z M238.1,202.7H258v39.7h-19.8V202.7z"/>
			<path fill="#505C54" d="M290.6,602.4c-1.8,1.9-2.9,4.5-2.9,7c0,2.6,1.1,5.2,2.9,7c1.9,1.8,4.5,2.9,7,2.9c2.6,0,5.2-1.1,7-2.9
				c1.8-1.9,2.9-4.5,2.9-7c0-2.6-1.1-5.2-2.9-7C300.9,598.7,294.4,598.7,290.6,602.4z"/>
			<path fill="#505C54" d="M218.3,490.4c0,5.5,4.4,9.9,9.9,9.9h39.7c5.5,0,9.9-4.4,9.9-9.9v-59.5c0-5.5-4.4-9.9-9.9-9.9h-39.7
				c-5.5,0-9.9,4.4-9.9,9.9L218.3,490.4L218.3,490.4z M238.1,440.8H258v39.7h-19.8V440.8z"/>
			<path fill="#505C54" d="M198.4,549.9c0,5.5,4.4,9.9,9.9,9.9h29.8v89.3c0,5.5,4.4,9.9,9.9,9.9s9.9-4.4,9.9-9.9v-89.3h79.4v89.3
				c0,5.5,4.4,9.9,9.9,9.9c5.5,0,9.9-4.4,9.9-9.9v-89.3h29.8c5.5,0,9.9-4.4,9.9-9.9c0-5.5-4.4-9.9-9.9-9.9H208.3
				C202.9,540,198.4,544.4,198.4,549.9z"/>
			<path fill="#505C54" d="M476.2,490.4c0,5.5,4.4,9.9,9.9,9.9h39.7c5.5,0,9.9-4.4,9.9-9.9v-59.5c0-5.5-4.4-9.9-9.9-9.9h-39.7
				c-5.5,0-9.9,4.4-9.9,9.9V490.4z M496.1,440.8h19.8v39.7h-19.8V440.8z"/>
			<path fill="#505C54" d="M426.6,123.3h-258c-5.5,0-9.9,4.4-9.9,9.9v515.9c0,5.5,4.4,9.9,9.9,9.9s9.9-4.4,9.9-9.9v-506h238.1v506
				c0,5.5,4.4,9.9,9.9,9.9s9.9-4.4,9.9-9.9V133.2C436.5,127.7,432.1,123.3,426.6,123.3z"/>
		</g>
	</g>
</g>
</svg>
