<?xml version="1.0" encoding="utf-8"?>
<!-- Generator: Adobe Illustrator 17.1.0, SVG Export Plug-In . SVG Version: 6.00 Build 0)  -->
<!DOCTYPE svg PUBLIC "-//W3C//DTD SVG 1.1//EN" "http://www.w3.org/Graphics/SVG/1.1/DTD/svg11.dtd">
<svg version="1.1" id="Layer_1" xmlns="http://www.w3.org/2000/svg" xmlns:xlink="http://www.w3.org/1999/xlink" x="0px" y="0px"
	 viewBox="0 0 595.3 841.9" enable-background="new 0 0 595.3 841.9" xml:space="preserve">
<g>
	<g>
		<g>
			<path fill="#667069" d="M72.1,292.5h451.2c12.1,0,21.9-9.8,21.9-21.9v-87.7c0-12.1-9.8-21.9-21.9-21.9h-65.8v-3.1
				c0-19-15.5-34.5-34.5-34.5c-19,0-34.5,15.5-34.5,34.5v50.1c0,19,15.5,34.5,34.5,34.5c19,0,34.5-15.5,34.5-34.5v-28.2h65.8
				c1.7,0,3.1,1.4,3.1,3.1v87.7c0,1.7-1.4,3.1-3.1,3.1H72.1c-1.7,0-3.1-1.4-3.1-3.1v-87.7c0-1.7,1.4-3.1,3.1-3.1h37.6
				c5.2,0,9.4-4.2,9.4-9.4c0-5.2-4.2-9.4-9.4-9.4H72.1c-12.1,0-21.9,9.8-21.9,21.9v87.7C50.1,282.7,60,292.5,72.1,292.5z
				 M438.6,207.9c0,8.6-7,15.7-15.7,15.7s-15.7-7-15.7-15.7v-50.1c0-8.6,7-15.7,15.7-15.7s15.7,7,15.7,15.7V207.9z"/>
			<path fill="#667069" d="M172.3,242.4c19,0,34.5-15.5,34.5-34.5v-28.2h153.5c5.2,0,9.4-4.2,9.4-9.4c0-5.2-4.2-9.4-9.4-9.4H206.8
				v-3.1c0-19-15.5-34.5-34.5-34.5s-34.5,15.5-34.5,34.5v50.1C137.9,226.9,153.3,242.4,172.3,242.4z M156.7,157.8
				c0-8.6,7-15.7,15.7-15.7s15.7,7,15.7,15.7v50.1c0,8.6-7,15.7-15.7,15.7s-15.7-7-15.7-15.7V157.8z"/>
			<path fill="#667069" d="M510.7,649.7c-5.2,0-9.4,4.2-9.4,9.4v25.1c0,8.6-7,15.7-15.7,15.7h-376c-8.6,0-15.7-7-15.7-15.7v-25.1
				c0-5.2-4.2-9.4-9.4-9.4c-5.2,0-9.4,4.2-9.4,9.4v25.1c0,19,15.5,34.5,34.5,34.5h376c19,0,34.5-15.5,34.5-34.5v-25.1
				C520.1,653.9,515.9,649.7,510.7,649.7z"/>
			<path fill="#667069" d="M544,471.4c-3.3-3.2-7.2-5.6-11.3-7.2V320.7c0-5.2-4.2-9.4-9.4-9.4c-5.2,0-9.4,4.2-9.4,9.4v141.7
				c-0.2,0-0.3,0.1-0.5,0.1l-168.7,33.8V370.8c0-12.4-6.7-23.9-17.5-30c-10.8-6.1-24.1-5.9-34.7,0.4l-62.7,37.6
				c-7.9,4.7-13.5,12.3-15.7,21.2c-2.2,8.9-0.9,18.2,3.9,26.1c9.8,16.3,31,21.6,47.3,11.8l10.5-6.3v78.4L81.5,549V320.7
				c0-5.2-4.2-9.4-9.4-9.4s-9.4,4.2-9.4,9.4v232.7c-13,5.1-21.9,17.8-21.9,32.1v10.9c0,19,15.4,34.5,34.4,34.5h322.8
				c5.2,0,9.4-4.2,9.4-9.4c0-5.2-4.2-9.4-9.4-9.4H75.1c-8.6,0-15.6-7-15.6-15.7v-10.9c0-7.4,5.3-13.9,12.6-15.4l214.7-43
				c0.1,0,0.3,0,0.4-0.1l49.8-10c0.1,0,0.1,0,0.2,0l179.9-36c5.1-1,10.1,0.5,13.9,4.1c3.8,3.6,5.4,8.6,4.6,13.8l-16,100.1
				c-1.2,7.6-7.7,13.2-15.4,13.2h-68.7c-5.2,0-9.4,4.2-9.4,9.4c0,5.2,4.2,9.4,9.4,9.4h68.7c17,0,31.3-12.2,34-29l16-100.1
				C555.9,490.6,552.1,479.3,544,471.4z M325.8,500.1L325.8,500.1l-31.3,6.3v-91.3c0-3.4-1.8-6.5-4.8-8.2c-1.4-0.8-3-1.2-4.6-1.2
				c-1.7,0-3.3,0.4-4.8,1.3l-24.7,14.8c-7.4,4.4-17,2-21.5-5.4c-2.2-3.6-2.8-7.8-1.8-11.9s3.6-7.5,7.1-9.6l62.7-37.6
				c4.8-2.9,10.9-3,15.8-0.2c4.9,2.8,7.9,8,7.9,13.6L325.8,500.1L325.8,500.1z"/>
		</g>
	</g>
</g>
</svg>
