<?xml version="1.0" encoding="utf-8"?>
<!-- Generator: Adobe Illustrator 17.1.0, SVG Export Plug-In . SVG Version: 6.00 Build 0)  -->
<!DOCTYPE svg PUBLIC "-//W3C//DTD SVG 1.1//EN" "http://www.w3.org/Graphics/SVG/1.1/DTD/svg11.dtd">
<svg version="1.1" id="Capa_1" xmlns="http://www.w3.org/2000/svg" xmlns:xlink="http://www.w3.org/1999/xlink" x="0px" y="0px"
	 viewBox="0 0 595.3 841.9" enable-background="new 0 0 595.3 841.9" xml:space="preserve">
<g>
	<rect x="468.3" y="367.8" fill="#667069" width="54.2" height="24.1"/>
	<rect x="468.3" y="262.9" fill="#667069" width="54.2" height="24.1"/>
	<rect x="468.3" y="315.3" fill="#667069" width="93.3" height="24.1"/>
	<rect x="468.3" y="210.4" fill="#667069" width="93.3" height="24.1"/>
	<rect x="468.3" y="420.3" fill="#667069" width="93.3" height="24.1"/>
	<path fill="#667069" d="M422.7,476.5V200.2c0-34-27.7-61.7-61.7-61.7s-61.7,27.7-61.7,61.7v276.3c-36.7,21.5-61,59.4-60.5,115.4
		c0,54,60.2,111.5,122.2,111.5c67.2,0,121.9-54.7,121.9-121.9C482.8,537.9,460,498.4,422.7,476.5z M361,679.3
		c-53.9,0-97.8-43.9-97.8-97.8c0-36.9,20.5-70.3,53.6-87.1l6.6-3.3V200.2c0-20.8,16.9-37.6,37.6-37.6s37.6,16.9,37.6,37.6V491
		l6.6,3.3c33.1,16.8,53.6,50.2,53.6,87.1C458.8,635.4,414.9,679.3,361,679.3z"/>
</g>
<path fill="#B9BEBB" d="M438.7,581.5c0,42.9-34.9,77.7-77.7,77.7c-42.9,0-77.7-34.9-77.7-77.7c0-35.1,23.7-66,57.7-75l4.5-1.2V237.7
	h31.1v267.6l4.5,1.2C415,515.5,438.7,546.4,438.7,581.5z"/>
<path fill="#FFFFFF" d="M364.8,529.7c-1.9-8.2-10.1-13.6-18.6-11.7c-29.5,6.7-50,32.4-50,62.7c0,8.6,7,15.5,15.5,15.5
	c8.5,0,15.5-7,15.5-15.5c0-15.4,10.9-29,25.8-32.4C361.4,546.3,366.7,538,364.8,529.7z"/>
<g>
	<path fill="#667069" d="M65.8,340.4c55.8,0,104.6,0,160,0c0,41,0,129.6,0,168.5c-1.6,0.3-3.2,0.7-4.8,1
		c-3.7-16.6-7.4-87.2-11.1-103.8c-4.7,0.1-9.1,0.2-13.8,0.4c-4,100.1-8.2,204.4-12.1,304.5c-5.7,0.1-11.3,0.2-17,0.4
		c-2.9-50.6-5.8-101.1-8.7-151.7c-6.4,0-12.8,0-19.3,0c-3.9,51.4-7.8,102.8-11.7,154.3c-6.2-0.1-12.3-0.3-18.5-0.4
		c1.1-101,3.4-206.3-9.7-308.2c-5.9-0.5-9-0.5-14.8-1c-4.1,25.7-10,79.3-14.2,105c-1,0-4.7,1.8-5.7,1.8
		C64.3,467.5,65.8,393.5,65.8,340.4z"/>
</g>
<circle fill="#667069" cx="152.3" cy="272.4" r="36.1"/>
</svg>
