<?xml version="1.0" encoding="utf-8"?>
<!-- Generator: Adobe Illustrator 17.1.0, SVG Export Plug-In . SVG Version: 6.00 Build 0)  -->
<!DOCTYPE svg PUBLIC "-//W3C//DTD SVG 1.1//EN" "http://www.w3.org/Graphics/SVG/1.1/DTD/svg11.dtd">
<svg version="1.1" id="Capa_1" xmlns="http://www.w3.org/2000/svg" xmlns:xlink="http://www.w3.org/1999/xlink" x="0px" y="0px"
	 viewBox="0 0 595.3 841.9" enable-background="new 0 0 595.3 841.9" xml:space="preserve">
<g>
	<path fill="#505C54" d="M575.3,158c-2.1,0-3.6,0-5.7,0.7c-0.7,0-1.5,0-1.5,0.7L392.4,228l-171.5-66.5c-0.7,0-0.7,0-1.5-0.7
		c-3.6-0.7-8.6-2.1-15.7-2.1h-1.4l0,0c-7.9,0-15,1.5-22.2,4.3c-0.7,0-2.1,0.7-2.8,0.7L21.5,224.5c-17.9,7.1-22.2,22.9-21.4,31.4
		v405.2c0,2.1,0,10.7,6.4,17.1c3.6,3.6,8.6,5.7,13.6,5.7c2.8,0,6.4-0.7,9.3-2.1l173.6-67.9l165.8,64.3l4.3,1.5
		c3.6,1.5,10,2.8,19.3,2.8c0,0,0,0,0.7,0l0,0c8.6,0,15.7-1.5,23.6-4.3l161.5-62.9c0,0,0.7,0,0.7-0.7c10.7-5,16.4-15,16.4-27.1V180.1
		C594.6,165.1,584.6,158,575.3,158z M25.8,654.6V255.9c0-1.5,0.7-5,5-6.4l154.4-60c1.5,0,2.1-0.7,3.6-0.7l0,0v403L25.8,654.6z
		 M215.2,591V187.3l163.6,63.6v403.7L215.2,591z M568.2,588.2c0,2.1-0.7,2.8-1.5,2.8l-160.8,62.9c0,0-0.7,0-0.7,0.7V250.9
		l162.9-63.6L568.2,588.2L568.2,588.2z M443.1,493.8c3.6-6.4,12.2-8.6,17.9-4.3l20.7,12.2l18.6-29.3c3.6-6.4,12.2-7.9,18.6-4.3
		c6.4,3.6,7.9,12.2,4.3,18.6l-18.6,28.6l20,12.2c6.4,3.6,8.6,12.2,4.3,17.9c-2.1,4.3-7.1,6.4-11.4,6.4c-2.1,0-4.3-0.7-6.4-2.1
		l-20.7-12.2l-18.6,29.3c-2.8,4.3-7.1,6.4-11.4,6.4c-2.1,0-5-0.7-7.1-2.1c-6.4-3.6-7.9-12.2-4.3-18.6l18.6-28.6l-20-12.2
		C441.6,508.1,439.5,500.2,443.1,493.8z"/>
</g>
</svg>
