<?xml version="1.0" encoding="utf-8"?>
<!-- Generator: Adobe Illustrator 17.1.0, SVG Export Plug-In . SVG Version: 6.00 Build 0)  -->
<!DOCTYPE svg PUBLIC "-//W3C//DTD SVG 1.1//EN" "http://www.w3.org/Graphics/SVG/1.1/DTD/svg11.dtd">
<svg version="1.1" id="Capa_1" xmlns="http://www.w3.org/2000/svg" xmlns:xlink="http://www.w3.org/1999/xlink" x="0px" y="0px"
	 viewBox="0 0 595.3 841.9" enable-background="new 0 0 595.3 841.9" xml:space="preserve">
<g>
	<path fill="#667069" d="M343.4,615.6C343.4,615.6,343.4,615.6,343.4,615.6l-177.3,0.8c-1.5,0-2.9-0.1-4.5-0.2l-8.3-0.8
		c-73.1-3.6-130.4-63.9-130.4-137.2c0-75.7,61.6-137.4,137.4-137.4h297.6c50.5,0,91.6-41.1,91.6-91.6v-17c0-38.1-27.3-70-63.4-74.1
		c-9.9-1.1-19.8-0.3-29.4,2.6c-39.4,11.6-62,53-50.4,92.4c1.8,6.1,8.2,9.6,14.2,7.8c6.1-1.8,9.5-8.2,7.8-14.2
		c-8-27.3,7.6-55.9,34.9-64c6.7-2,13.6-2.6,20.4-1.8c24.2,2.8,43.1,25.3,43.1,51.4v17c0,37.9-30.8,68.7-68.7,68.7H160.3
		C71.9,317.9,0,389.8,0,478.2c0,85.5,66.9,155.8,151.6,160l7.7,0.8c2.2,0.2,4.5,0.3,6.8,0.3l177.3-0.8c6.3,0,11.4-5.2,11.4-11.5
		C354.8,620.7,349.7,615.6,343.4,615.6z"/>
	<path fill="#667069" d="M493.4,502.2l-320.5,0.1l-12.6-1.2c-12.6,0-22.9-10.3-22.9-22.9s10.3-22.9,22.9-22.9h297.6
		c6.3,0,11.4-5.1,11.4-11.4s-5.1-11.4-11.4-11.4H160.3c-25.3,0-45.8,20.5-45.8,45.8c0,25.2,20.5,45.7,44.6,45.7c0,0,0.1,0,0.1,0
		l12.6,1.2h321.6c43.6,0,79,35.5,79,79c0,1,0.3,1.9,0.6,2.9c-0.2,0.9-0.6,1.9-0.6,2.9c0,28.4-23.1,51.5-51.5,51.5
		c-28.4,0-51.5-23.1-51.5-51.5c0-6.3-5.1-11.4-11.4-11.4s-11.4,5.1-11.4,11.4c0,41,33.4,74.4,74.4,74.4c41,0,74.4-33.4,74.4-74.4
		c0-1-0.3-1.9-0.6-2.9c0.2-0.9,0.6-1.8,0.6-2.9C595.3,547.9,549.6,502.2,493.4,502.2z"/>
	<path fill="#667069" d="M457.9,375.2H160.3c-56.8,0-103,46.2-103,103c0,55.7,43.6,100.9,98.5,102.9l10.4,1l327.2,0.3h0
		c6.3,0,11.4-5.1,11.4-11.4c0-6.3-5.1-11.5-11.4-11.5l-326.1-0.2l-10-1c-43.2-1.6-77.1-36.8-77.1-80.1c0-44.2,36-80.1,80.1-80.1
		h297.6c75.7,0,137.4-61.6,137.4-137.4c0-6.3-5.1-11.4-11.4-11.4s-11.4,5.1-11.4,11.4C572.4,323.8,521,375.2,457.9,375.2z"/>
</g>
</svg>
