<?xml version="1.0" encoding="utf-8"?>
<!-- Generator: Adobe Illustrator 17.1.0, SVG Export Plug-In . SVG Version: 6.00 Build 0)  -->
<!DOCTYPE svg PUBLIC "-//W3C//DTD SVG 1.1//EN" "http://www.w3.org/Graphics/SVG/1.1/DTD/svg11.dtd">
<svg version="1.1" id="Capa_1" xmlns="http://www.w3.org/2000/svg" xmlns:xlink="http://www.w3.org/1999/xlink" x="0px" y="0px"
	 viewBox="0 0 595.3 841.9" enable-background="new 0 0 595.3 841.9" xml:space="preserve">
<path fill="#667069" d="M286.5,356.2c-4.1-7.9-8.3-15.9-12.4-23.8c-10.6-20.5-21.6-41.7-32.5-62.5c-3.8-7.3-1.8-13.3,0.6-17.1
	c8.2-12.8,16.5-25.8,24.6-38.4c6.4-10.1,13.1-20.5,19.7-30.7c-2.8-5.3-5.6-10.6-8.1-15.6c-3.2-0.1-6.1-0.2-9-0.4
	c-3.1-0.1-6-0.3-8.9-0.4c-7.2,11.4-14.5,22.8-21.6,33.9l-5.7,8.9c-1.4,2.1-5,7.8-12,7.5c-7-0.3-10-6.1-11.3-8.5
	c-0.2-0.3-0.3-0.6-0.4-0.9c0-0.1-0.1-0.2-0.1-0.3l-6.6-12.6c-6.7-12.9-13.6-26.2-20.4-39.3c-2.7-0.1-5.5-0.2-8.5-0.3
	c-2.8-0.1-5.8-0.3-9.1-0.4c-3.3,5.3-6.5,10.3-9.6,15c9.4,18,18.8,36.1,27.6,53.2c0.9,1.7,1.3,3.2,1.6,4.4c0.1,0.3,0.2,0.7,0.3,1.1
	l4.6,14.7l-15.4-0.7l-3.7-0.2c-4.2-0.2-8.4-0.4-12.6-0.6c-4.3-0.2-8.5-0.4-12.8-0.6c-7-0.3-16-0.7-25.2-1.2
	c-3.1,5.1-6.4,10.1-9.6,15.1c2.6,4.9,5.4,10.3,8.1,15.7c17,0.7,34.2,1.5,50.8,2.2c10.4,0.5,20.8,0.9,31.2,1.4
	c6.5,0.3,11.2,3.1,13.9,8.4c10,19.4,20.3,39.1,30.2,58.2c5,9.7,10,19.3,15.1,29c2.7,5.2,2.8,9.8,0.2,13.8c-2.6,4-6.8,5.9-12.7,5.7
	c-12.6-0.6-25.2-1.1-37.8-1.7c-19.6-0.9-39.9-1.8-59.9-2.6c-6-0.3-10.8-3.4-13.6-8.8c-2-3.9-4-7.8-6-11.7c-0.9-1.7-1.8-3.4-2.6-5
	l-5.1-9.8c-8.1-15.6-16.2-31.1-24.2-46.7c-2.3-0.1-4.5-0.2-6.5-0.3l-1.8-0.1l-1.8-0.1c-2.5-0.1-5.1-0.2-7.8-0.3
	c-3.2,4.9-6.4,9.8-9.4,14.8c2.7,5.3,5.5,10.6,8.2,15.8c1,1.9,2,3.9,3,5.8c1.2,2.3,2.4,4.6,3.6,6.9c2.9,5.6,6,11.4,8.9,17.2
	c1.7,3.4,3.2,8.5,0.2,13.4c-2.4,3.9-6.4,5.9-12,5.9c-0.5,0-1,0-1.6,0c-0.3,0-0.6,0-0.9,0c-0.2,0-0.5,0-0.7,0l-13.6-0.6
	c-4.8-0.2-9.5-0.4-14.3-0.6c-8.2-0.4-18.8-0.8-29.6-1.4c-3,4.9-6.2,9.8-9.4,14.8c2.6,4.8,5.4,10.1,8.1,15.6
	c8.8,0.4,18.3,0.8,29.8,1.3c7.1,0.3,14.1,0.6,21.2,1l8.5,0.4c2.5,0.1,9.3,0.4,12.6,6.8c3.3,6.3-0.3,12.1-1.7,14.2l-1.1,1.7
	c-8.6,13.5-17.4,27.4-26.2,41.1c2.6,4.9,5.3,10.1,8.1,15.6c3.2,0.1,6.4,0.2,9.6,0.4c3,0.1,5.7,0.3,8.2,0.5
	c7.2-11.4,14.5-22.9,21.6-34c7.3-11.4,14.8-23.1,22.1-34.7c3.7-5.9,9.1-8.7,16.2-8.4l0,0l0,0c19.2,0.9,38.1,1.8,54,2.5l20.2,0.9
	l20.2,0.9l0.8,0l0.1,0c0.7,0,1.3,0.1,2,0.1c7,0.5,10,4.5,11.2,6.8c1,1.9,2.8,6.9-1,12.9c-0.1,0.2-0.2,0.4-0.3,0.6
	c-0.2,0.4-0.4,0.7-0.7,1.1c-3.8,6-7.6,11.9-11.4,17.9c-13.2,20.7-26.8,42-40.2,63.1c-3.6,5.7-8.9,8.4-15.6,8.1l0,0l-0.1,0
	c-14.8-0.7-29.9-1.4-44.5-2c-12.2-0.5-24.7-1.1-37.1-1.7c-3,4.8-6.1,9.7-9.5,14.9c3.1,5.8,5.8,11,8.2,15.9c7,0.3,14.6,0.6,24.1,1
	c4.3,0.2,8.7,0.4,13,0.6c4.3,0.2,8.7,0.4,13,0.6l4.5,0.2l16.4,0.7l-7.1,14.8c-0.3,0.5-0.5,1-0.6,1.4c-0.5,1.1-1,2.2-1.8,3.4
	c-9.9,15.6-21.1,33.2-32.1,50.4c2.7,5,5.4,10.3,8.2,15.8c3.1,0.1,6.3,0.2,9.4,0.3c3,0.1,5.7,0.3,8.2,0.5c8.5-13.4,17.1-27,25.5-40.1
	c2.2-3.5,4.4-6.9,6.6-10.4c1.4-2.1,33.9-53.3,37.2-58.5c12.9-20,25.9-40.4,38.5-60.1c4.5-7,9-14,13.5-21.1c0.7-1.2,2.5-3.8,5.3-5.6
	C286.1,426.5,286.8,356.7,286.5,356.2z"/>
<g>
	<rect x="468.3" y="367.8" fill="#667069" width="54.2" height="24.1"/>
	<rect x="468.3" y="262.9" fill="#667069" width="54.2" height="24.1"/>
	<rect x="468.3" y="315.3" fill="#667069" width="93.3" height="24.1"/>
	<rect x="468.3" y="210.4" fill="#667069" width="93.3" height="24.1"/>
	<rect x="468.3" y="420.3" fill="#667069" width="93.3" height="24.1"/>
	<path fill="#667069" d="M422.7,476.5V200.2c0-34-27.7-61.7-61.7-61.7s-61.7,27.7-61.7,61.7v276.3c-36.7,21.5-61,59.4-60.5,115.4
		c0,54,60.2,111.5,122.2,111.5c67.2,0,121.9-54.7,121.9-121.9C482.8,537.9,460,498.4,422.7,476.5z M361,679.3
		c-53.9,0-97.8-43.9-97.8-97.8c0-36.9,20.5-70.3,53.6-87.1l6.6-3.3V200.2c0-20.8,16.9-37.6,37.6-37.6s37.6,16.9,37.6,37.6V491
		l6.6,3.3c33.1,16.8,53.6,50.2,53.6,87.1C458.8,635.4,414.9,679.3,361,679.3z"/>
</g>
<path fill="#B9BEBB" d="M438.7,581.5c0,42.9-34.9,77.7-77.7,77.7c-42.9,0-77.7-34.9-77.7-77.7c0-35.1,23.7-66,57.7-75l4.5-1.2V237.7
	h31.1v267.6l4.5,1.2C415,515.5,438.7,546.4,438.7,581.5z"/>
<path fill="#FFFFFF" d="M364.8,529.7c-1.9-8.2-10.1-13.6-18.6-11.7c-29.5,6.7-50,32.4-50,62.7c0,8.6,7,15.5,15.5,15.5
	c8.5,0,15.5-7,15.5-15.5c0-15.4,10.9-29,25.8-32.4C361.4,546.3,366.7,538,364.8,529.7z"/>
</svg>
