<?xml version="1.0" encoding="utf-8"?>
<!-- Generator: Adobe Illustrator 17.1.0, SVG Export Plug-In . SVG Version: 6.00 Build 0)  -->
<!DOCTYPE svg PUBLIC "-//W3C//DTD SVG 1.1//EN" "http://www.w3.org/Graphics/SVG/1.1/DTD/svg11.dtd">
<svg version="1.1" id="Layer_1" xmlns="http://www.w3.org/2000/svg" xmlns:xlink="http://www.w3.org/1999/xlink" x="0px" y="0px"
	 viewBox="0 0 595.3 841.9" enable-background="new 0 0 595.3 841.9" xml:space="preserve">
<g id="Waves">
	<path fill="#667069" d="M153.6,374.1c49.6,0,99.1-17.1,149.2-51.2c84.4-57.4,191-57.4,278,0.1c4.3,2.8,10.1,1.6,12.9-2.7
		c2.8-4.3,1.6-10.1-2.7-13c-93.5-61.7-207.9-61.6-298.6,0.1c-93.3,63.5-184.3,63.5-277.9,0c-4.3-2.9-10-1.7-12.9,2.6
		c-2.9,4.3-1.7,10.1,2.5,13C54.4,357,104,374.1,153.6,374.1z"/>
	<path fill="#667069" d="M591.1,436.8c-93.5-61.7-207.9-61.6-298.6,0.1c-93.3,63.5-184.3,63.5-277.9,0c-4.3-2.9-10-1.7-12.9,2.6
		c-2.9,4.3-1.7,10.1,2.5,13c50.3,34.1,99.9,51.2,149.5,51.2c49.6,0,99.1-17.1,149.2-51.2c84.4-57.4,191-57.4,278,0.1
		c4.3,2.8,10.1,1.6,12.9-2.7C596.6,445.4,595.4,439.6,591.1,436.8z"/>
	<path fill="#667069" d="M591.1,566.3c-93.5-61.7-207.9-61.6-298.6,0.1c-93.3,63.5-184.2,63.5-277.9,0c-4.3-2.9-10-1.7-12.9,2.6
		c-2.9,4.3-1.7,10.1,2.5,13c50.3,34.1,99.9,51.2,149.5,51.2c49.6,0,99.1-17.1,149.2-51.2c84.4-57.4,191-57.4,278.1,0.1
		c4.3,2.8,10.1,1.6,12.9-2.7C596.6,574.9,595.4,569.1,591.1,566.3z"/>
</g>
<path fill="#667069" d="M146.9,26.3c-1.6-1.9-4-3-6.5-3c-2.5,0-4.9,1.1-6.5,3c-3.7,4.3-90.2,104.7-90.2,156
	c0,53.3,43.4,96.7,96.7,96.7c53.3,0,96.7-43.4,96.7-96.7C237.1,131,150.6,30.5,146.9,26.3z M220,182.2c0,43.9-35.7,79.5-79.5,79.5
	s-79.5-35.7-79.5-79.5c0-37.7,61.4-115,79.6-137c8.5,10.3,22.8,28.1,37,48.5C212.6,144,220,169.6,220,182.2z"/>
<path fill="#667069" d="M140.4,235.9c-29.6,0-53.6-24.1-53.6-53.6c0-4.7-3.8-8.6-8.6-8.6s-8.6,3.8-8.6,8.6c0,39,31.8,70.8,70.8,70.8
	c4.7,0,8.6-3.8,8.6-8.6C149,239.7,145.2,235.9,140.4,235.9z"/>
</svg>
