<?xml version="1.0" encoding="utf-8"?>
<!-- Generator: Adobe Illustrator 17.1.0, SVG Export Plug-In . SVG Version: 6.00 Build 0)  -->
<!DOCTYPE svg PUBLIC "-//W3C//DTD SVG 1.1//EN" "http://www.w3.org/Graphics/SVG/1.1/DTD/svg11.dtd">
<svg version="1.1" id="Capa_1" xmlns="http://www.w3.org/2000/svg" xmlns:xlink="http://www.w3.org/1999/xlink" x="0px" y="0px"
	 viewBox="0 0 595.3 841.9" enable-background="new 0 0 595.3 841.9" xml:space="preserve">
<g>
	<path fill="#667069" d="M551.8,330.6c0.9-7,1.4-13.7,1.4-20.2c0-89.8-73-162.8-162.8-162.8c-53.8,0-104.2,27-134.4,71.2
		c-15.2-7.8-31.9-11.9-49.2-11.9c-55.7,0-101.7,42.7-106.9,97.5C42.3,314.2,0,363.6,0,423.2c0,66.6,54.2,120.7,120.8,120.7h353.8
		c66.6,0,120.7-54.2,120.7-120.7C595.3,387,579.5,353.6,551.8,330.6z M474.5,520.4H120.8c-53.6,0-97.3-43.6-97.3-97.2
		c0-49.9,39-92.4,88.7-96.8L123,325v-10.8c0-46.3,37.6-83.9,83.9-83.9c16.6,0,32.7,4.9,46.5,14.1l10.4,6.9l6.3-10.8
		c24.9-42.8,71-69.5,120.4-69.5c76.8,0,139.3,62.5,139.3,139.3c0,7.3-0.7,14.9-2.1,23.3l-1.2,7.1l5.8,4.3
		c25.2,18.6,39.6,47.1,39.6,78.1C571.8,476.8,528.2,520.4,474.5,520.4z M159.9,653.7l-0.1,28.9c0,6.5-5.3,11.7-11.7,11.7
		c0,0,0,0,0,0c-6.5,0-11.7-5.3-11.7-11.8l0.1-28.9c0-6.5,5.3-11.7,11.7-11.7c0,0,0,0,0,0C154.6,641.9,159.9,647.2,159.9,653.7z
		 M160.1,583.2l-0.1,35.2c0,6.5-5.3,11.7-11.7,11.7c0,0,0,0,0,0c-6.5,0-11.7-5.3-11.7-11.8l0.1-35.2c0-6.5,5.3-11.8,11.8-11.7
		C154.9,571.4,160.1,576.7,160.1,583.2z M239.1,583.2l0,11.7c0,6.5-5.3,11.7-11.7,11.7c0,0,0,0,0,0c-6.5,0-11.7-5.3-11.7-11.8
		l0-11.7c0-6.5,5.3-11.7,11.7-11.7c0,0,0,0,0,0C233.8,571.4,239.1,576.7,239.1,583.2z M238.9,640.9l0,11.7c0,6.5-5.3,11.7-11.7,11.7
		c0,0,0,0,0,0c-6.5,0-11.7-5.3-11.7-11.8l0-11.7c0-6.5,5.3-11.7,11.7-11.7c0,0,0,0,0,0C233.6,629.1,238.9,634.4,238.9,640.9z
		 M317.9,653.7l-0.1,28.9c0,6.5-5.3,11.7-11.7,11.7h0c-6.5,0-11.7-5.3-11.7-11.8l0.1-28.9c0-6.5,5.3-11.7,11.7-11.7c0,0,0,0,0,0
		C312.7,641.9,317.9,647.2,317.9,653.7z M318.1,583.2l-0.1,35.2c0,6.5-5.3,11.7-11.7,11.7h0c-6.5,0-11.7-5.3-11.7-11.8l0.1-35.2
		c0-6.5,5.3-11.7,11.7-11.7c0,0,0,0,0,0C312.9,571.4,318.1,576.7,318.1,583.2z M397.1,583.2l0,11.7c0,6.5-5.3,11.7-11.7,11.7
		c0,0,0,0,0,0c-6.5,0-11.7-5.3-11.7-11.8l0-11.7c0-6.5,5.3-11.7,11.7-11.7c0,0,0,0,0,0C391.9,571.4,397.1,576.7,397.1,583.2z
		 M396.9,640.9l0,11.7c0,6.5-5.3,11.7-11.7,11.7c0,0,0,0,0,0c-6.5,0-11.7-5.3-11.7-11.8l0-11.7c0-6.5,5.3-11.7,11.7-11.7
		c0,0,0,0,0,0C391.7,629.1,396.9,634.4,396.9,640.9z M475.9,653.7l-0.1,28.9c0,6.5-5.3,11.7-11.7,11.7h0c-6.5,0-11.7-5.3-11.7-11.8
		l0.1-28.9c0-6.5,5.3-11.7,11.7-11.7c0,0,0,0,0,0C470.7,641.9,476,647.2,475.9,653.7z M476.2,583.2l-0.1,35.2
		c0,6.5-5.3,11.7-11.7,11.7c0,0,0,0,0,0c-6.5,0-11.7-5.3-11.7-11.8l0.1-35.2c0-6.5,5.3-11.7,11.7-11.7c0,0,0,0,0,0
		C470.9,571.4,476.2,576.7,476.2,583.2z"/>
</g>
</svg>
