<?xml version="1.0" encoding="utf-8"?>
<!-- Generator: Adobe Illustrator 17.1.0, SVG Export Plug-In . SVG Version: 6.00 Build 0)  -->
<!DOCTYPE svg PUBLIC "-//W3C//DTD SVG 1.1//EN" "http://www.w3.org/Graphics/SVG/1.1/DTD/svg11.dtd">
<svg version="1.1" id="Layer_1" xmlns="http://www.w3.org/2000/svg" xmlns:xlink="http://www.w3.org/1999/xlink" x="0px" y="0px"
	 viewBox="0 0 595.3 841.9" enable-background="new 0 0 595.3 841.9" xml:space="preserve">
<g>
	<g>
		<path fill="#505C54" d="M567,344.2c-15.4-9.5-37.1-17.9-64.5-25.1c-30.4-7.9-66.4-13.9-105.6-17.6v-79h12.4
			c0,6.8,5.5,12.4,12.4,12.4h24.8c6.8,0,12.4-5.5,12.4-12.4c0-6.8-5.6-12.4-12.4-12.4h-12.4c0-6.8-5.6-12.4-12.4-12.4h-24.8v-12.4
			c0-6.8-5.6-12.4-12.4-12.4s-12.4,5.6-12.4,12.4v114.1c-24-1.7-49-2.5-74.4-2.5c-25.5,0-50.4,0.9-74.4,2.5v-76.9h12.4
			c0,6.8,5.6,12.4,12.4,12.4h24.8c6.8,0,12.4-5.5,12.4-12.4c0-6.8-5.6-12.4-12.4-12.4h-12.4c0-6.8-5.6-12.4-12.4-12.4h-24.8v-12.4
			c0-6.8-5.6-12.4-12.4-12.4s-12.4,5.6-12.4,12.4v116.2c-39.2,3.7-75.2,9.7-105.6,17.6c-27.4,7.1-49.1,15.6-64.5,25.1
			C9.5,355.8,0,369.1,0,383.7v198.4c0,14.6,9.5,27.9,28.3,39.5c15.4,9.5,37.1,17.9,64.5,25.1c54.9,14.3,127.6,22.2,204.8,22.2
			c12.3,0,24.5-0.2,36.6-0.6c0.2,0,0.4,0,0.6,0c0.5,0,1,0,1.5-0.1c62.6-2.2,120.5-9.6,166.1-21.5c27.4-7.2,49.1-15.6,64.5-25.1
			c18.8-11.6,28.3-24.9,28.3-39.5V383.7C595.3,369.1,585.7,355.8,567,344.2z M391.7,325.9c38.9,3.6,74.5,9.4,104.5,17.2
			c7.1,1.8,13.5,3.7,19.4,5.6l-107.3,60.1c-6.6-2.2-13.7-3.9-20.5-5.2c-10-2-21.2-3.6-33.4-4.8L391.7,325.9z M297.6,321.7
			c23,0,45.5,0.7,67.2,2.1l-37.4,73c-9.7-0.5-19.7-0.7-29.8-0.7c-10.2,0-20.2,0.2-29.8,0.7l-37.4-73
			C252.1,322.4,274.7,321.7,297.6,321.7z M99.1,343.1c30-7.8,65.6-13.6,104.5-17.2l37.4,72.9c-12.2,1.2-23.5,2.9-33.4,4.8
			c-6.8,1.4-13.9,3-20.5,5.2L79.7,348.7C85.5,346.8,92,345,99.1,343.1z M86.8,619.4c-48.6-14.4-62-29.9-62-37.2v-61.9
			c4.8,3.6,10.6,7.2,17.5,10.8c12.5,6.5,27.3,12.2,44.5,17.1V619.4z M86.8,522.3c-10.7-3.3-19.4-6.6-26.4-9.9
			c-31.6-14.5-35.3-28.4-35.6-30v-61.3c4.8,3.6,10.6,7.3,17.5,10.9c12.5,6.5,27.3,12.2,44.5,17V522.3z M60.4,413.2
			c-31-14.2-35.2-27.9-35.6-29.9c0.4-5,6.7-13.5,25.2-22.7l113.7,63.7c-1.6,2.7-2.5,5.7-2.5,9.1c0,1.8,0.2,3.4,0.7,5
			C110.9,431.8,79.5,422,60.4,413.2z M210.8,640.6c-36.4-3.1-70.1-8.1-99.2-14.8v-71.5c28.2,6,61.3,10.3,99.2,12.8V640.6z
			 M210.8,542.2c-42.1-2.9-74.4-7.8-99.2-13.4v-73.7c28.2,6,61.3,10.3,99.2,12.8V542.2z M248,643c-4.2-0.2-8.3-0.4-12.4-0.7v-73.9
			c4.1,0.2,8.2,0.3,12.4,0.5V643z M322.4,643.9c-8.2,0.2-16.5,0.3-24.8,0.3c-8.3,0-16.6-0.1-24.8-0.3v-74.3
			c8.1,0.1,16.4,0.2,24.8,0.2c8.4,0,16.7-0.1,24.8-0.2V643.9z M359.6,642.4c-4.1,0.3-8.2,0.5-12.4,0.7V569c4.2-0.1,8.3-0.3,12.4-0.5
			V642.4z M359.6,543.6c-21.5,1-42.6,1.3-62,1.3c-22.5,0-43.1-0.5-62-1.3v-74.4c19.5,0.9,40.2,1.3,62,1.3c21.8,0,42.5-0.4,62-1.3
			V543.6z M297.6,445.8c-28.4,0-55.9-2-77.4-5.6c-14-2.3-22.6-4.8-27.9-6.8c5.3-2,13.9-4.5,27.9-6.8c21.6-3.6,49.1-5.6,77.4-5.6
			c28.3,0,55.8,2,77.4,5.6c13.9,2.3,22.6,4.8,27.8,6.8c-5.3,2-13.9,4.5-27.8,6.8C353.5,443.8,326,445.8,297.6,445.8z M483.7,625.9
			c-29.1,6.7-62.8,11.7-99.2,14.8v-73.5c37.9-2.5,71-6.8,99.2-12.8V625.9z M483.7,528.9c-30.3,6.9-64.9,11-99.2,13.3v-74.3
			c37.9-2.5,71-6.8,99.2-12.8V528.9z M493.6,427.3c-0.4,0.1-0.8,0.2-1.2,0.3c-18.2,4.6-38.2,8.1-59,10.7c0.4-1.6,0.7-3.2,0.7-5
			c0-3.4-0.9-6.4-2.5-9.1l113.7-63.7c19,9.6,25.2,18.3,25.2,23.2c0,0.1-3.1,12.7-29,26.2C528,417,511.7,422.7,493.6,427.3z
			 M508.5,449c17.2-4.9,32-10.5,44.5-17c6.9-3.6,12.7-7.3,17.5-10.9V483c0,0.1-3.1,12.7-29,26.2c-9.7,5.1-20.8,9.4-33,13.2V449z
			 M570.5,582.2c0,7.3-13.4,22.8-62,37.2v-71.1c17.2-4.9,32-10.6,44.5-17.1c6.9-3.6,12.7-7.2,17.5-10.8V582.2z"/>
	</g>
</g>
</svg>
