<?xml version="1.0" encoding="utf-8"?>
<!-- Generator: Adobe Illustrator 17.1.0, SVG Export Plug-In . SVG Version: 6.00 Build 0)  -->
<!DOCTYPE svg PUBLIC "-//W3C//DTD SVG 1.1//EN" "http://www.w3.org/Graphics/SVG/1.1/DTD/svg11.dtd">
<svg version="1.1" id="Capa_1" xmlns="http://www.w3.org/2000/svg" xmlns:xlink="http://www.w3.org/1999/xlink" x="0px" y="0px"
	 viewBox="0 0 367.3 367.3" enable-background="new 0 0 367.3 367.3" xml:space="preserve">
<g>
	<g>
		<path fill="#667069" d="M181.8,116.7c5.7,0,9.6-3.8,9.6-9.6V68.9c0-5.7-3.8-9.6-9.6-9.6c-5.8,0-9.6,3.8-9.6,9.6v38.2
			C172.2,112.8,177.9,116.7,181.8,116.7z"/>
		<path fill="#667069" d="M308,240.9c0,5.7,3.8,9.6,9.6,9.6h38.2c5.7,0,9.6-3.8,9.6-9.6c0-5.8-3.8-9.6-9.6-9.6h-38.2
			C311.8,231.4,308,237.1,308,240.9z"/>
		<path fill="#667069" d="M76.6,250.6h19.1c0-3.8,0-5.7,0-9.6c0-47.8,38.2-86.1,86.1-86.1s86.1,38.2,86.1,86.1c0,3.8,0,5.7,0,9.6
			H287c0-3.8,0-5.7,0-9.6c0-57.4-47.8-105.2-105.2-105.2c-57.4,0-105.2,47.8-105.2,105.2C76.6,244.9,76.6,246.8,76.6,250.6z"/>
		<path fill="#667069" d="M283.1,153.1l26.8-26.8c3.8-3.8,3.8-9.6,0-13.4s-9.6-3.8-13.4,0l-26.8,26.8c-3.8,3.8-3.8,9.6,0,13.4
			C273.6,156.9,281.2,156.9,283.1,153.1z"/>
		<path fill="#667069" d="M80.4,153.1c3.8,3.8,9.6,3.8,13.4,0s3.8-9.6,0-13.4L67,112.8c-3.8-3.8-9.6-3.8-13.4,0
			c-3.8,3.8-3.8,9.6,0,13.4L80.4,153.1z"/>
		<path fill="#667069" d="M353.9,288.9H248.7l-66.9-57.4l-66.9,57.4H9.6c-3.8,0-9.6,3.8-9.6,9.6c0,5.8,5.7,9.6,9.6,9.6h116.7
			l22.9-19.1l34.4-28.7L218,289l23,19.1h116.7c5.7,0,9.6-3.8,9.6-9.6C363.4,292.6,359.6,288.9,353.9,288.9z"/>
		<path fill="#667069" d="M9.6,250.6h38.2c5.7,0,9.6-3.8,9.6-9.6c0-5.8-3.8-9.6-9.6-9.6H9.6c-5.7,0-9.6,5.7-9.6,9.6
			C0.1,246.8,3.9,250.6,9.6,250.6z"/>
	</g>
</g>
</svg>
