<?xml version="1.0" encoding="utf-8"?>
<!-- Generator: Adobe Illustrator 17.1.0, SVG Export Plug-In . SVG Version: 6.00 Build 0)  -->
<!DOCTYPE svg PUBLIC "-//W3C//DTD SVG 1.1//EN" "http://www.w3.org/Graphics/SVG/1.1/DTD/svg11.dtd">
<svg version="1.1" id="Capa_1" xmlns="http://www.w3.org/2000/svg" xmlns:xlink="http://www.w3.org/1999/xlink" x="0px" y="0px"
	 viewBox="0 0 365.4 365.4" enable-background="new 0 0 365.4 365.4" xml:space="preserve">
<g>
	<g>
		<path fill="#667069" d="M283.1,123.4l26.8-26.8c3.8-3.8,3.8-9.6,0-13.4s-9.6-3.8-13.4,0L269.7,110c-3.8,3.8-3.8,9.6,0,13.4
			C273.6,127.2,281.2,127.2,283.1,123.4z"/>
		<path fill="#667069" d="M181.8,87.1c5.7,0,9.6-3.8,9.6-9.6V39.3c0-5.7-3.8-9.6-9.6-9.6c-3.8,0-9.6,3.8-9.6,9.6v38.2
			C172.2,83.2,177.9,87.1,181.8,87.1z"/>
		<path fill="#667069" d="M308,211.4c0,5.7,3.8,9.6,9.6,9.6h38.2c5.7,0,9.6-3.8,9.6-9.6s-3.8-9.6-9.6-9.6h-38.2
			C311.8,201.8,308,207.6,308,211.4z"/>
		<path fill="#667069" d="M80.4,123.4c3.8,3.8,9.6,3.8,13.4,0s3.8-9.6,0-13.4L67,83.2c-3.8-3.8-9.6-3.8-13.4,0
			c-3.8,3.8-3.8,9.6,0,13.4L80.4,123.4z"/>
		<path fill="#667069" d="M9.6,220.9h38.2c5.7,0,9.6-3.8,9.6-9.6c0-5.8-3.8-9.6-9.6-9.6H9.6c-5.7,0-9.6,5.7-9.6,9.6
			C0.1,217.1,3.9,220.9,9.6,220.9z"/>
		<path fill="#667069" d="M353.9,259.1H237.2l-23,19.1L179.8,307l-30.6-28.7l-22.9-19.1H9.6c-3.8,0-9.6,3.8-9.6,9.6
			c0,5.8,5.7,9.6,9.6,9.6h105.2l66.9,57.4l66.9-57.4h105.2c5.7,0,9.6-3.8,9.6-9.6C363.4,263,359.6,259.1,353.9,259.1z"/>
		<path fill="#667069" d="M78.5,220.9h19.1c0-3.8,0-5.7,0-9.6c0-47.8,38.2-86.1,86.1-86.1s86.1,38.2,86.1,86.1c0,3.8,0,5.7,0,9.6
			h19.1c0-3.8,0-5.7,0-9.6c0-57.4-47.8-105.2-105.2-105.2S78.5,153.9,78.5,211.3C76.6,215.1,76.6,217.1,78.5,220.9z"/>
	</g>
</g>
</svg>
