<?xml version="1.0" encoding="utf-8"?>
<!-- Generator: Adobe Illustrator 17.1.0, SVG Export Plug-In . SVG Version: 6.00 Build 0)  -->
<!DOCTYPE svg PUBLIC "-//W3C//DTD SVG 1.1//EN" "http://www.w3.org/Graphics/SVG/1.1/DTD/svg11.dtd">
<svg version="1.1" id="Layer_1" xmlns="http://www.w3.org/2000/svg" xmlns:xlink="http://www.w3.org/1999/xlink" x="0px" y="0px"
	 viewBox="0 0 595.3 841.9" enable-background="new 0 0 595.3 841.9" xml:space="preserve">
<path fill="#B8BFBC" d="M293,283.9c-76.2,0-138,61.8-138,138s61.8,138,138,138s138-61.8,138-138S369.2,283.9,293,283.9z
	 M329.5,420.9c0,17.6-14.3,31.9-31.9,31.9c-17.6,0-31.9-14.3-31.9-31.9c0-17.6,14.3-31.9,31.9-31.9
	C315.2,389.1,329.5,403.4,329.5,420.9z"/>
<g>
	<g>
		<path fill="#667069" d="M566.8,393.2c-4.8-6.2-13.8-7.3-19.9-2.5c-6.2,4.8-7.3,13.8-2.5,19.9c4.7,6.1,4.7,14.6,0,20.7
			c-34.7,44.5-79.7,78-130.3,98.3c26.6-28.5,42.9-66.7,42.9-108.6c0-41.8-16.1-79.8-42.5-108.2c29.3,11.8,56.7,27.9,81.3,48.1
			c3.1,2.5,6.1,5.1,9.1,7.7c5.9,5.2,14.8,4.6,20-1.2s4.7-14.8-1.2-20c-3.2-2.9-6.5-5.7-9.9-8.4c-60.7-49.8-137.5-77.2-216.1-77.2
			c-105.9,0-203.9,47.9-269.1,131.5c-12.8,16.4-12.8,39.2,0,55.6c65.2,83.6,163.3,131.5,269.1,131.5s203.9-47.9,269.1-131.5
			C579.5,432.4,579.5,409.5,566.8,393.2z M297.8,551.8h-0.3c-72.1-0.1-130.7-58.8-130.7-130.9c0-72.1,58.6-130.8,130.7-130.9h0.3
			c72.1,0.1,130.8,58.8,130.8,130.9S369.9,551.7,297.8,551.8z M50.9,431.3c-4.7-6.1-4.7-14.6,0-20.7c34.7-44.5,79.7-78,130.3-98.3
			c-26.6,28.5-42.9,66.6-42.9,108.6c0,41.9,16.3,80.1,42.9,108.6C130.6,509.3,85.7,475.8,50.9,431.3z"/>
	</g>
</g>
<g>
	<g>
		<path fill="#667069" d="M297.6,360.7c-33.2,0-60.3,27-60.3,60.3c0,33.2,27,60.3,60.3,60.3s60.3-27,60.3-60.3
			C357.9,387.7,330.9,360.7,297.6,360.7z M297.6,452.8c-17.6,0-31.9-14.3-31.9-31.9c0-17.6,14.3-31.9,31.9-31.9
			c17.6,0,31.9,14.3,31.9,31.9C329.5,438.5,315.2,452.8,297.6,452.8z"/>
	</g>
</g>
<g>
	<g>
		<path fill="#667069" d="M297.6,123.3c-7.8,0-14.2,6.4-14.2,14.2v53.3c0,7.8,6.4,14.2,14.2,14.2c7.8,0,14.2-6.4,14.2-14.2v-53.3
			C311.8,129.7,305.5,123.3,297.6,123.3z"/>
	</g>
</g>
<g>
	<g>
		<path fill="#667069" d="M297.6,636.9c-7.8,0-14.2,6.4-14.2,14.2v53.3c0,7.8,6.4,14.2,14.2,14.2c7.8,0,14.2-6.4,14.2-14.2v-53.3
			C311.8,643.3,305.5,636.9,297.6,636.9z"/>
	</g>
</g>
<g>
	<g>
		<path fill="#667069" d="M508.1,210.5c-5.5-5.5-14.5-5.5-20.1,0L461.5,237c-5.5,5.5-5.5,14.5,0,20.1c2.8,2.8,6.4,4.2,10,4.2
			c3.6,0,7.3-1.4,10-4.2l26.5-26.5C513.7,225,513.7,216,508.1,210.5z"/>
	</g>
</g>
<g>
	<g>
		<path fill="#667069" d="M133.8,584.8c-5.5-5.5-14.5-5.5-20.1,0l-26.5,26.5c-5.5,5.5-5.5,14.5,0,20.1c2.8,2.8,6.4,4.2,10,4.2
			c3.6,0,7.3-1.4,10-4.2l26.5-26.5C139.3,599.4,139.3,590.4,133.8,584.8z"/>
	</g>
</g>
<g>
	<g>
		<path fill="#667069" d="M133.8,237l-26.5-26.5c-5.5-5.5-14.5-5.5-20.1,0c-5.5,5.5-5.5,14.5,0,20.1l26.5,26.5
			c2.8,2.8,6.4,4.2,10,4.2c3.6,0,7.3-1.4,10-4.2C139.3,251.5,139.3,242.5,133.8,237z"/>
	</g>
</g>
<g>
	<g>
		<path fill="#667069" d="M508.1,611.3l-26.5-26.5c-5.5-5.5-14.5-5.5-20.1,0c-5.5,5.5-5.5,14.5,0,20.1l26.5,26.5
			c2.8,2.8,6.4,4.2,10,4.2c3.6,0,7.3-1.4,10-4.2C513.7,625.9,513.7,616.9,508.1,611.3z"/>
	</g>
</g>
</svg>
