<?xml version="1.0" encoding="utf-8"?>
<!-- Generator: Adobe Illustrator 18.0.0, SVG Export Plug-In . SVG Version: 6.00 Build 0)  -->
<!DOCTYPE svg PUBLIC "-//W3C//DTD SVG 1.1//EN" "http://www.w3.org/Graphics/SVG/1.1/DTD/svg11.dtd">
<svg version="1.1" id="Слой_1" xmlns="http://www.w3.org/2000/svg" xmlns:xlink="http://www.w3.org/1999/xlink" x="0px" y="0px"
	 viewBox="0 0 256 422" enable-background="new 0 0 256 422" xml:space="preserve">
<path fill-rule="evenodd" clip-rule="evenodd" fill="#FFFFFF" d="M47.1,29.7L38,38.8l-9.1-9.1c-2.5-2.5-2.5-6.6,0-9.1
	c2.5-2.5,6.6-2.5,9.1,0c2.5-2.5,6.6-2.5,9.1,0C49.6,23.1,49.6,27.2,47.1,29.7z"/>
<path fill-rule="evenodd" clip-rule="evenodd" fill="#C3ED46" d="M80.4,29.7l-9.1,9.1l-9.1-9.1c-2.5-2.5-2.5-6.6,0-9.1
	c2.5-2.5,6.6-2.5,9.1,0c2.5-2.5,6.6-2.5,9.1,0C82.9,23.1,82.9,27.2,80.4,29.7z"/>
<path fill-rule="evenodd" clip-rule="evenodd" fill="#9FC920" d="M113.8,29.7l-9.1,9.1l-9.1-9.1c-2.5-2.5-2.5-6.6,0-9.1
	c2.5-2.5,6.6-2.5,9.1,0c2.5-2.5,6.6-2.5,9.1,0C116.3,23.1,116.3,27.2,113.8,29.7z"/>
<path fill="#FFFFFF" d="M45,73l2.4,0.2l0.6-2.5l-2.3-1.1c0-1.3-0.4-2.5-1-3.6l1.6-1.8l-1.5-2l-2.2,1.2c-1-0.7-2.1-1.3-3.4-1.5
	l-0.4-2.3h-2.5l-0.4,2.5c-1,0.3-2,0.8-2.8,1.5l-2-1.3l-1.7,1.9l1.6,2.1c-0.5,1-0.8,2.2-0.8,3.4c0,0.1,0,0.1,0,0.2L28,70.9l0.4,2.5
	l2.6,0c0.5,1.1,1.3,2.1,2.3,2.8l-0.8,2.4l2.2,1.2l1.6-2.1c0.5,0.1,1,0.2,1.6,0.2c0.7,0,1.3-0.1,2-0.3l1.3,2.1l2.3-1l-0.6-2.6
	C43.8,75.1,44.5,74.1,45,73z M33.3,69.9c0-2.6,2.1-4.8,4.6-4.8s4.6,2.1,4.6,4.8c0,2.6-2.1,4.8-4.6,4.8S33.3,72.5,33.3,69.9z"/>
<path fill="#C3ED46" d="M78.4,73l2.4,0.2l0.6-2.5L79,69.7c0-1.3-0.4-2.5-1-3.6l1.6-1.8l-1.5-2l-2.2,1.2c-1-0.7-2.1-1.3-3.4-1.5
	l-0.4-2.3h-2.5l-0.4,2.5c-1,0.3-2,0.8-2.8,1.5l-2-1.3l-1.7,1.9l1.6,2.1c-0.5,1-0.8,2.2-0.8,3.4c0,0.1,0,0.1,0,0.2l-2.2,0.8l0.4,2.5
	l2.6,0c0.5,1.1,1.3,2.1,2.3,2.8l-0.8,2.4l2.2,1.2l1.6-2.1c0.5,0.1,1,0.2,1.6,0.2c0.7,0,1.3-0.1,2-0.3l1.3,2.1l2.3-1l-0.6-2.6
	C77.1,75.1,77.9,74.1,78.4,73z M66.6,69.9c0-2.6,2.1-4.8,4.6-4.8s4.6,2.1,4.6,4.8c0,2.6-2.1,4.8-4.6,4.8S66.6,72.5,66.6,69.9z"/>
<path fill="#9FC920" d="M111.7,73l2.4,0.2l0.6-2.5l-2.3-1.1c0-1.3-0.4-2.5-1-3.6l1.6-1.8l-1.5-2l-2.2,1.2c-1-0.7-2.1-1.3-3.4-1.5
	l-0.4-2.3h-2.5l-0.4,2.5c-1,0.3-2,0.8-2.8,1.5l-2-1.3l-1.7,1.9l1.6,2.1c-0.5,1-0.8,2.2-0.8,3.4c0,0.1,0,0.1,0,0.2l-2.2,0.8l0.4,2.5
	l2.6,0c0.5,1.1,1.3,2.1,2.3,2.8l-0.8,2.4l2.2,1.2l1.6-2.1c0.5,0.1,1,0.2,1.6,0.2c0.7,0,1.3-0.1,2-0.3l1.3,2.1l2.3-1l-0.6-2.6
	C110.5,75.1,111.2,74.1,111.7,73z M100,69.9c0-2.6,2.1-4.8,4.6-4.8s4.6,2.1,4.6,4.8c0,2.6-2.1,4.8-4.6,4.8S100,72.5,100,69.9z"/>
<path fill-rule="evenodd" clip-rule="evenodd" fill="#FFFFFF" d="M29.5,112.8v-2h17v2H29.5z"/>
<path fill-rule="evenodd" clip-rule="evenodd" fill="#FFFFFF" d="M29.5,107.6v-1.7h17v1.7H29.5z"/>
<path fill-rule="evenodd" clip-rule="evenodd" fill="#FFFFFF" d="M29.5,102.8v-2h17v2H29.5z"/>
<path fill-rule="evenodd" clip-rule="evenodd" fill="#C3ED46" d="M62.8,112.8v-2h17v2H62.8z"/>
<path fill-rule="evenodd" clip-rule="evenodd" fill="#C3ED46" d="M62.8,107.6v-1.7h17v1.7H62.8z"/>
<path fill-rule="evenodd" clip-rule="evenodd" fill="#C3ED46" d="M62.8,102.8v-2h17v2H62.8z"/>
<path fill-rule="evenodd" clip-rule="evenodd" fill="#9FC920" d="M96.2,112.8v-2h17v2H96.2z"/>
<path fill-rule="evenodd" clip-rule="evenodd" fill="#9FC920" d="M96.2,107.6v-1.7h17v1.7H96.2z"/>
<path fill-rule="evenodd" clip-rule="evenodd" fill="#9FC920" d="M96.2,102.8v-2h17v2H96.2z"/>
<path fill="#FFFFFF" d="M38,136.5c4.8,0,8.6,3.9,8.6,8.6s-3.9,8.6-8.6,8.6s-8.6-3.9-8.6-8.6S33.2,136.5,38,136.5 M38,135.1
	c-5.5,0-10,4.5-10,10s4.5,10,10,10s10-4.5,10-10S43.5,135.1,38,135.1L38,135.1z"/>
<g>
	<circle fill="#FFFFFF" cx="38" cy="145.1" r="4.9"/>
</g>
<g>
	<rect x="37.3" y="131.1" fill="#FFFFFF" width="1.3" height="28"/>
	<rect x="24" y="144.4" fill="#FFFFFF" width="28" height="1.3"/>
</g>
<path fill="#FFFFFF" d="M41.2,183.6l-3.9,6.2l-3.9-6.2H41.2 M44.8,181.6h-15l7.5,12L44.8,181.6L44.8,181.6z"/>
<path fill="#9FC920" d="M67.7,183.6l-3.9,6.2l-3.9-6.2H67.7 M71.3,181.6h-15l7.5,12L71.3,181.6L71.3,181.6z"/>
<path fill="#FFAE00" d="M94.2,183.6l-3.9,6.2l-3.9-6.2H94.2 M97.8,181.6h-15l7.5,12L97.8,181.6L97.8,181.6z"/>
<path fill="#00B7F4" d="M120.7,183.6l-3.9,6.2l-3.9-6.2H120.7 M124.3,181.6h-15l7.5,12L124.3,181.6L124.3,181.6z"/>
<path fill="#9FC920" d="M204.5,220c-11.6,0-21-9.4-21-21s9.4-21,21-21s21,9.4,21,21S216,220,204.5,220z M204.5,182.7
	c-9,0-16.3,7.3-16.3,16.3s7.3,16.3,16.3,16.3s16.3-7.3,16.3-16.3S213.5,182.7,204.5,182.7z"/>
<path fill="#9FC920" d="M204.5,202.1c-1.3,0-2.3-1.1-2.3-2.3v-12.1c0-1.3,1.1-2.3,2.3-2.3s2.3,1.1,2.3,2.3v12.1
	C206.8,201,205.8,202.1,204.5,202.1z"/>
<path fill="#9FC920" d="M210.1,207.7c-0.6,0-1.2-0.2-1.7-0.7l-5.6-5.6c-0.9-0.9-0.9-2.4,0-3.3c0.9-0.9,2.4-0.9,3.3,0l5.6,5.6
	c0.9,0.9,0.9,2.4,0,3.3C211.3,207.5,210.7,207.7,210.1,207.7z"/>
<path fill="#9FC920" d="M196.8,135.2l13.6,23.3h-27.1L196.8,135.2 M196.8,130.7l-17.5,30h34.9L196.8,130.7L196.8,130.7z"/>
<g>
	<polygon fill="#9FC920" points="214.2,160.7 203.4,142.2 199.9,146.8 196.2,143.2 193.4,145.7 190,142.3 179.3,160.7 	"/>
</g>
<path fill="#9FC920" d="M216.3,142.2l3.2,5.5l6.3,10.8h-9.3l-4.8-8.2l1.4-2.4L216.3,142.2 M216.3,137.7l-5.2,8.9l-2.1,3.6l6.1,10.5
	h14.5l-8.2-14.2L216.3,137.7L216.3,137.7z"/>
<g>
	<polygon fill="#9FC920" points="229.6,160.7 215.1,160.7 209,150.2 211.1,146.6 218.7,150.1 221.4,146.5 	"/>
</g>
<path fill="#9FC920" d="M217.8,248.8c-5.1,0-9.2-4.1-9.2-9.2h5c0,2.3,1.9,4.2,4.2,4.2c2.3,0,4.2-1.9,4.2-4.2h5
	C227,244.7,222.8,248.8,217.8,248.8z"/>
<path fill="#9FC920" d="M204.5,248.8c-5.1,0-9.2-4.1-9.2-9.2h5c0,2.3,1.9,4.2,4.2,4.2s4.2-1.9,4.2-4.2h5
	C213.6,244.7,209.5,248.8,204.5,248.8z"/>
<path fill="#9FC920" d="M191.1,248.8c-5.1,0-9.2-4.1-9.2-9.2h5c0,2.3,1.9,4.2,4.2,4.2c2.3,0,4.2-1.9,4.2-4.2h5
	C200.3,244.7,196.2,248.8,191.1,248.8z"/>
<path fill="#9FC920" d="M217.8,262.2c-5.1,0-9.2-4.1-9.2-9.2h5c0,2.3,1.9,4.2,4.2,4.2c2.3,0,4.2-1.9,4.2-4.2h5
	C227,258.1,222.8,262.2,217.8,262.2z"/>
<path fill="#9FC920" d="M204.5,262.2c-5.1,0-9.2-4.1-9.2-9.2h5c0,2.3,1.9,4.2,4.2,4.2s4.2-1.9,4.2-4.2h5
	C213.6,258.1,209.5,262.2,204.5,262.2z"/>
<path fill="#9FC920" d="M191.1,262.2c-5.1,0-9.2-4.1-9.2-9.2h5c0,2.3,1.9,4.2,4.2,4.2c2.3,0,4.2-1.9,4.2-4.2h5
	C200.3,258.1,196.2,262.2,191.1,262.2z"/>
<path fill="#9FC920" d="M217.8,275.5c-5.1,0-9.2-4.1-9.2-9.2h5c0,2.3,1.9,4.2,4.2,4.2c2.3,0,4.2-1.9,4.2-4.2h5
	C227,271.4,222.8,275.5,217.8,275.5z"/>
<path fill="#9FC920" d="M204.5,275.5c-5.1,0-9.2-4.1-9.2-9.2h5c0,2.3,1.9,4.2,4.2,4.2s4.2-1.9,4.2-4.2h5
	C213.6,271.4,209.5,275.5,204.5,275.5z"/>
<path fill="#9FC920" d="M191.1,275.5c-5.1,0-9.2-4.1-9.2-9.2h5c0,2.3,1.9,4.2,4.2,4.2c2.3,0,4.2-1.9,4.2-4.2h5
	C200.3,271.4,196.2,275.5,191.1,275.5z"/>
<path fill="#9FC920" d="M190.5,79v36.2c0,0.8,0.6,1.4,1.4,1.4h16.8c0.4,0,0.7-0.1,1-0.4l7.9-7.9c0.3-0.3,0.4-0.6,0.4-1V79
	c0-0.8-0.6-1.4-1.4-1.4h-24.7C191.1,77.6,190.5,78.2,190.5,79z M197,83.8h14.6c0.7,0,1.2,0.5,1.2,1.2c0,0.7-0.5,1.2-1.2,1.2H197
	c-0.7,0-1.2-0.5-1.2-1.2C195.7,84.3,196.3,83.8,197,83.8z M197,92h14.6c0.7,0,1.2,0.5,1.2,1.2s-0.5,1.2-1.2,1.2H197
	c-0.7,0-1.2-0.5-1.2-1.2S196.3,92,197,92z M197,102.7c-0.7,0-1.2-0.5-1.2-1.2c0-0.7,0.5-1.2,1.2-1.2h14.6c0.7,0,1.2,0.5,1.2,1.2
	c0,0.7-0.5,1.2-1.2,1.2H197z M209.2,114.6v-5.3c0-0.8,0.6-1.4,1.4-1.4h5.3L209.2,114.6z"/>
<path fill="#9FC920" d="M206.3,22.9l-7.6,6.6v33.4H214V29.5L206.3,22.9z M208.3,60.2h-4v-4h4V60.2z M208.3,53.7h-4v-4h4V53.7z
	 M208.3,47.3h-4v-4h4V47.3z M208.3,40.9h-4v-4h4V40.9z M208.3,34.5h-4v-4h4V34.5z"/>
<path fill="#9FC920" d="M185.2,32.2v30.7h12.3V32.2H185.2z M193.4,60.2h-4v-4h4V60.2z M193.4,53.7h-4v-4h4V53.7z M193.4,47.3h-4v-4
	h4V47.3z M193.4,40.9h-4v-4h4V40.9z"/>
<path fill="#9FC920" d="M215.2,40.9v22h10v-22H215.2z M222.2,60.2h-4v-4h4V60.2z M222.2,53.7h-4v-4h4V53.7z M222.2,47.3h-4v-4h4
	V47.3z"/>
<path fill="#9FC920" d="M204.4,335.4c-11,0-20-9-20-20s9-20,20-20s20,9,20,20S215.5,335.4,204.4,335.4z M204.4,297.8
	c-9.7,0-17.6,7.9-17.6,17.6c0,9.7,7.9,17.6,17.6,17.6s17.6-7.9,17.6-17.6C222.1,305.7,214.2,297.8,204.4,297.8z"/>
<path fill="#9FC920" d="M204.4,335.4c-0.7,0-1.2-0.5-1.2-1.2v-37.6c0-0.7,0.5-1.2,1.2-1.2s1.2,0.5,1.2,1.2v37.6
	C205.6,334.9,205.1,335.4,204.4,335.4z"/>
<path fill="#9FC920" d="M204.4,335.4c-7.2,0-10.5-10.4-10.5-20c0-5.1,0.9-9.9,2.4-13.4c1.9-4.3,4.7-6.6,8.1-6.6
	c0.7,0,1.2,0.5,1.2,1.2s-0.5,1.2-1.2,1.2c-3,0-4.9,2.8-5.9,5.2c-1.4,3.2-2.2,7.8-2.2,12.5c0,8.8,2.8,17.6,8.2,17.6
	c0.7,0,1.2,0.5,1.2,1.2S205.1,335.4,204.4,335.4z"/>
<path fill="#9FC920" d="M204.4,335.4c-0.7,0-1.2-0.5-1.2-1.2s0.5-1.2,1.2-1.2c3,0,4.9-2.8,5.9-5.2c1.4-3.2,2.2-7.8,2.2-12.5
	c0-8.8-2.8-17.6-8.2-17.6c-0.7,0-1.2-0.5-1.2-1.2s0.5-1.2,1.2-1.2c7.2,0,10.5,10.4,10.5,20c0,5.1-0.9,9.9-2.4,13.4
	C210.6,333.2,207.8,335.4,204.4,335.4z"/>
<path fill="#9FC920" d="M223.2,316.6h-37.6c-0.7,0-1.2-0.5-1.2-1.2s0.5-1.2,1.2-1.2h37.6c0.7,0,1.2,0.5,1.2,1.2
	S223.9,316.6,223.2,316.6z"/>
<path fill="#9FC920" d="M221,325.6h-33.1c-0.7,0-1.2-0.5-1.2-1.2c0-0.7,0.5-1.2,1.2-1.2H221c0.7,0,1.2,0.5,1.2,1.2
	C222.1,325.1,221.6,325.6,221,325.6z"/>
<path fill="#9FC920" d="M220.6,307.6h-32.7c-0.7,0-1.2-0.5-1.2-1.2s0.5-1.2,1.2-1.2h32.7c0.7,0,1.2,0.5,1.2,1.2
	S221.2,307.6,220.6,307.6z"/>
<path fill="#9FC920" d="M205.2,356.8c-7.3,0-13.2,5.9-13.2,13.2c0,5.5,7.4,15.4,11.1,20.1c0.6,0.7,1.1,1.3,1.4,1.7
	c0.4,0.5,0.6,0.7,0.6,0.7s0.2-0.3,0.6-0.7c0.3-0.4,0.8-1,1.4-1.7c3.7-4.6,11.1-14.6,11.1-20.1C218.3,362.7,212.4,356.8,205.2,356.8z
	 M205.2,375.8c-3.2,0-5.8-2.6-5.8-5.8c0-3.2,2.6-5.8,5.8-5.8c3.2,0,5.8,2.6,5.8,5.8C211,373.2,208.4,375.8,205.2,375.8z"/>
<path fill="#9FC920" d="M209.9,390.2c-0.5,0.6-0.9,1.2-1.4,1.7c2,0.2,3.4,0.5,3.4,0.9c0,0.5-2.1,0.9-5,1c-0.6,0-1.2,0-1.8,0
	c-0.6,0-1.2,0-1.8,0c-2.9-0.1-5-0.5-5-1c0-0.4,1.4-0.7,3.4-0.9c-0.4-0.5-0.9-1.1-1.4-1.7c-5.2,0.5-9,1.8-9,3.3
	c0,1.9,6.2,3.5,13.7,3.5c7.6,0,13.7-1.6,13.7-3.5C218.9,392,215.1,390.7,209.9,390.2z M205.2,391.8c0.2,0,0.4,0,0.6,0
	c0.3-0.4,0.8-1,1.4-1.7c-0.7,0-1.4,0-2,0s-1.4,0-2,0c0.6,0.7,1.1,1.3,1.4,1.7C204.7,391.8,204.9,391.8,205.2,391.8z"/>
<path fill="#FFFFFF" d="M30.8,229.1c0-0.5,0-1.1,0-1.6c0.1-1.1,0.2-2.2,0.5-3.3c0.6-2,2.2-3.2,4.2-3.9c2.2-0.7,4.5-0.7,6.8-0.4
	c0.4,0,0.5,0.2,0.5,0.6c0,1.3,0,2.6,0,3.9c0,0.5-0.2,0.6-0.6,0.6c-0.7,0-1.4,0-2,0.1c-2.2,0.4-2.4,2.5-2,3.8c0,0.2,0.4,0.3,0.6,0.3
	c1.2,0,2.3,0,3.5,0c0.5,0,0.7,0.1,0.7,0.6c0,1.1,0,2.1,0,3.2c0,0.5-0.1,0.7-0.7,0.7c-1.1,0-2.1,0-3.2,0c-0.8,0-0.9,0.1-0.9,0.9
	c-0.1,3.4-0.1,6.9-0.1,10.3c0,2.7,0,5.4,0,8.1c0,0.6-0.2,0.8-0.8,0.8c-1.8,0-3.6,0-5.4,0c-0.7,0-0.9-0.2-0.9-0.8
	c0-6.1,0-12.2,0-18.3c0-1,0-1-1-1c-0.8,0-1.6,0-2.4,0c-0.5,0-0.7-0.1-0.6-0.6c0-1.1,0-2.2,0-3.3c0-0.5,0.2-0.6,0.7-0.6
	c0.9,0,1.8,0,2.8,0C30.6,229.1,30.7,229.1,30.8,229.1z"/>
<path fill="#FFFFFF" d="M91,237.2c-1.6,4.1-4,7.6-7.7,10.1c-5.9,4-14.8,4.1-20.5,0.1c1.8,0.1,3.5,0,5-0.5c1.6-0.5,3-1.1,4.4-2.3
	c-3-0.4-5-1.8-6.1-4.7c0.9-0.1,1.7,0.3,2.6-0.3c-1.3-0.3-2.2-1.1-3.2-1.7c-1.2-1.3-1.6-2.9-1.9-4.7c0.8-0.1,1.5,0.7,2.6,0.3
	c-2.4-2.5-3.2-5.3-1.6-8.9c1.4,1.9,3.1,3.1,4.9,4.3c2.5,1.8,5.4,2.6,8.5,2.9c0.6,0,0.6-0.3,0.6-0.7c-0.2-1.4,0-2.8,0.7-4
	c1.7-2.9,5.9-5,9.1-2.6c1.9,1.4,2.2,1.3,5.9-0.4c-0.5,1.5-1.3,2.5-2.6,3.4c1.2,0.3,2-0.4,3.1-0.5c-0.5,1.2-1.4,1.8-2.1,2.5
	c-0.3,0.3-0.8,0.6-0.7,1.2C92,232.8,91.4,235,91,237.2z"/>
<g>
	<path fill="#FFFFFF" d="M120.4,240.9c-1.1-1.5-1.9-3-0.9-4.9c-1.1-0.1-2,0-2.9-0.2c-6.2-1.1-8.7-7.8-4.9-12.8
		c1.8-2.3,4.1-3.5,6.9-3.8c2.4-0.2,4.9-0.2,7.3-0.3c1.8,0,3.6,0,5.6,0c-1.7,1.5-3.4,2.1-5.4,1.7c0.9,1.3,1.8,2.3,2.4,3.6
		c1.5,3.4,0.6,6.6-2.2,9.1c-0.7,0.6-1.4,1.1-2,1.8c-1,1.1-0.9,2.3,0.2,3.3c1,0.9,2.1,1.8,3.2,2.7c5.2,4.2,3.3,10.3-1.1,12.9
		c-4.8,2.9-9.9,3.1-15.1,1.1c-2.3-0.9-4-2.6-4.2-5.3c-0.2-2.7,1.1-4.8,3.3-6.2c2.7-1.7,5.7-2.1,8.8-2.5c0.2,0,0.5,0,0.7-0.1
		C120.2,241,120.2,241,120.4,240.9z M120.1,254.5c1.5-0.3,2.9-0.5,4.3-1c3.3-1.3,4.1-5.3,1.6-7.9c-2.4-2.6-5.1-3.9-8.7-2.7
		c-0.5,0.2-1,0.2-1.5,0.4c-2.6,0.8-4.1,2.6-4.2,4.8c-0.1,2.4,1.3,4.5,3.8,5.4C117,253.9,118.6,254.1,120.1,254.5z M124.8,229
		c-0.3-2.7-0.9-5.7-3.7-7.7c-2.5-1.9-6.2-0.4-6.8,2.7c-0.5,3,0.1,5.8,2,8.2c0.6,0.8,1.5,1.6,2.5,2C122,235.4,124.8,233.1,124.8,229z
		"/>
	<path fill="#FFFFFF" d="M138,225c0-2.1,0-4,0-6.1c0.9,0,1.7,0,2.6,0c0,1.9,0,3.9,0,6c2.1,0,4.1,0,6.1,0c0,0.9,0,1.7,0,2.6
		c-2,0-3.9,0-6,0c0,2.1,0,4.1,0,6.1c-0.9,0-1.7,0-2.7,0c0-2,0-4,0-6.1c-2.1,0-4,0-6.2,0c0-0.8-0.1-1.4,0-2c0.1-0.2,0.6-0.5,0.9-0.5
		C134.5,225,136.2,225,138,225z"/>
</g>
<g>
	<polygon fill="#FFFFFF" points="106.8,386.8 106.8,396.6 111.5,396.6 111.5,386 111.5,383.3 106.8,383.3 	"/>
	<circle fill="#FFFFFF" cx="109.1" cy="378.9" r="2.3"/>
	<path fill="#FFFFFF" d="M126.7,387.4c-0.3-2.5-1.5-4.1-4.9-4.1c-2,0-3.4,0.7-3.9,1.8h-0.1v-1.8h-3.7v2.6v10.8h3.9V390
		c0-1.7,0.3-3.4,2.5-3.4c2.1,0,2.3,2,2.3,3.5v6.5h4v-7.3C126.8,388.6,126.8,387.9,126.7,387.4z"/>
</g>
<g>
	<path fill="#FFFFFF" d="M77.2,288.7c0.7-0.8,1.1-2,1-3.2c-1,0-2.2,0.7-2.9,1.5c-0.6,0.8-1.2,1.9-1,3.1
		C75.4,290.2,76.5,289.6,77.2,288.7z"/>
	<path fill="#FFFFFF" d="M79.7,296.2c0-0.8,0.2-1.5,0.5-2c0.6-1.2,1.6-1.8,1.6-1.8c-1.2-1.7-3-2-3.6-2c-1.5-0.2-3,0.9-3.8,0.9
		c-0.8,0-2-0.9-3.2-0.9c-1.7,0-3.2,1-4.1,2.5c-0.3,0.5-0.5,1-0.6,1.5c-0.7,2.9,0.4,6.5,1.8,8.6c0.8,1.2,1.8,2.6,3.1,2.5
		c1.2-0.1,1.7-0.8,3.2-0.8c1.5,0,1.9,0.8,3.2,0.8c1.3,0,2.2-1.2,3-2.5c0.9-1.4,1.3-2.8,1.4-2.8C82.3,300.2,79.7,299.2,79.7,296.2z"
		/>
</g>
<g>
	<path fill="#FFFFFF" d="M27.9,295.5c-0.5,0-0.9,0.4-0.9,0.9v4.4c0,0.5,0.4,0.9,0.9,0.9c0.5,0,0.9-0.4,0.9-0.9v-4.4
		C28.8,295.9,28.4,295.5,27.9,295.5z"/>
	<path fill="#FFFFFF" d="M42.1,295.5c-0.5,0-0.9,0.4-0.9,0.9v4.4c0,0.5,0.4,0.9,0.9,0.9c0.5,0,0.9-0.4,0.9-0.9v-4.4
		C43,295.9,42.6,295.5,42.1,295.5z"/>
	<path fill="#FFFFFF" d="M29.6,295.5C29.6,295.6,29.6,295.6,29.6,295.5v8.1c0,0.7,0.6,1.4,1.4,1.4h1.4v2.3c0,0.5,0.4,0.9,0.9,0.9
		c0.5,0,0.9-0.4,0.9-0.9V305h1.5v2.3c0,0.5,0.4,0.9,0.9,0.9c0.5,0,0.9-0.4,0.9-0.9V305H39c0.7,0,1.4-0.6,1.4-1.4v-8c0,0,0,0,0,0
		H29.6z"/>
	<path fill="#FFFFFF" d="M37.6,290.1l1-1.8l-0.2-0.1l-1,1.8c-0.7-0.4-1.6-0.6-2.4-0.6c-0.8,0-1.6,0.2-2.3,0.5l-0.9-1.7l-0.2,0.1
		l0.9,1.7c-1.7,0.9-2.8,2.6-2.8,4.7h10.7C40.3,292.7,39.2,291,37.6,290.1z M32.3,292.6c-0.3,0-0.5-0.2-0.5-0.5
		c0-0.3,0.2-0.5,0.5-0.5c0.3,0,0.5,0.2,0.5,0.5C32.8,292.4,32.5,292.6,32.3,292.6z M37.7,292.6c-0.3,0-0.5-0.2-0.5-0.5
		c0-0.3,0.2-0.5,0.5-0.5c0.3,0,0.5,0.2,0.5,0.5C38.2,292.4,38,292.6,37.7,292.6z"/>
</g>
<g>
	<polygon fill-rule="evenodd" clip-rule="evenodd" fill="#FFFFFF" points="115.3,290.1 115.3,297.6 125.9,297.6 125.9,288 	"/>
	<polygon fill-rule="evenodd" clip-rule="evenodd" fill="#FFFFFF" points="115.3,305.9 125.9,308 125.9,298.4 115.3,298.4 	"/>
	<polygon fill-rule="evenodd" clip-rule="evenodd" fill="#FFFFFF" points="107.7,304.4 114.3,305.7 114.3,298.4 107.7,298.4 	"/>
	<polygon fill-rule="evenodd" clip-rule="evenodd" fill="#FFFFFF" points="107.7,291.5 107.7,297.5 114.3,297.6 114.3,290.2 	"/>
</g>
<path fill="#FFFFFF" d="M71.4,382c0.6-0.6,1.7-0.6,2.3,0l0.2,0.2l2-2l-0.2-0.2c-1.1-1.1-2.7-1.5-4.1-1.2c-0.2-1.3-1.3-2.2-2.6-2.2
	c-1.5,0-2.7,1.2-2.7,2.7c0,1.3,0.9,2.3,2.1,2.6c-0.5,1.5-0.1,3.2,1.1,4.4l4.4,4.5l2-2l-4.4-4.5C70.8,383.7,70.8,382.6,71.4,382
	L71.4,382z M86.2,379.3c0-1.5-1.2-2.7-2.7-2.7c-1.4,0-2.5,1-2.7,2.3c-1.5-0.4-3.2-0.1-4.4,1.1l-4.5,4.5l2,2l4.4-4.5
	c0.6-0.6,1.7-0.6,2.3,0c0.6,0.6,0.6,1.7,0,2.3l-0.2,0.2l2,2l0.2-0.2c1.2-1.2,1.6-2.9,1.1-4.4C85.2,381.8,86.2,380.6,86.2,379.3
	L86.2,379.3z M84,391.3c0.4-1.5,0-3.1-1.2-4.2l-4.4-4.5l-2,2l4.4,4.5c0.6,0.6,0.6,1.7,0,2.3c-0.6,0.6-1.7,0.6-2.3,0l-0.2-0.2l-2,2
	l0.2,0.2c1.2,1.2,2.9,1.6,4.4,1.1c0.2,1.2,1.3,2.1,2.6,2.1c1.5,0,2.7-1.2,2.7-2.7C86.3,392.6,85.3,391.5,84,391.3L84,391.3z
	 M78.2,386.9l-4.4,4.5c-0.6,0.6-1.7,0.6-2.3,0c-0.6-0.6-0.6-1.7,0-2.3l0.2-0.2l-2-2l-0.2,0.2c-1.1,1.1-1.5,2.8-1.2,4.2
	c-1.2,0.3-2.1,1.3-2.1,2.6c0,1.5,1.2,2.7,2.7,2.7c1.3,0,2.3-0.9,2.6-2.1c1.5,0.4,3.1,0,4.2-1.2l4.4-4.5L78.2,386.9z M78.2,386.9"/>
<path fill="#FFFFFF" d="M35,376.6c-5.5,0-10,4.5-10,10c0,5.5,4.5,10,10,10c5.5,0,10-4.5,10-10C45,381.1,40.5,376.6,35,376.6z
	 M28.1,383.5c1.2,3.3,2.4,6.6,3.6,9.9C27.9,391.6,26.5,387,28.1,383.5z M37.4,393.8c-1.4,0.5-2.9,0.5-4.4,0.1
	c-0.1,0-0.2-0.1-0.1-0.2c0.7-2.1,1.5-4.3,2.2-6.5c0.2,0.7,0.5,1.3,0.7,1.9c0.5,1.5,1.1,3,1.6,4.5C37.5,393.7,37.5,393.8,37.4,393.8z
	 M38.2,389.6c-0.7-2.1-1.4-4.2-2.1-6.3C36,383,36,383,36.3,383c0.2,0,0.4,0,0.5,0c0.2,0,0.3-0.2,0.3-0.3c0-0.2-0.1-0.3-0.4-0.3
	c-0.5,0-1,0-1.4,0.1c-0.8,0-1.6,0-2.4-0.1c-0.2,0-0.3,0-0.4,0.2c-0.1,0.2,0,0.4,0.3,0.4c0.2,0,0.4,0,0.6,0.1c0.1,0,0.2,0,0.2,0.1
	c0.4,1,0.7,2,1.1,3c0,0.1,0,0.1,0,0.2c-0.5,1.6-1.1,3.2-1.6,4.8c0,0,0,0-0.1,0.1c-0.1-0.3-0.2-0.5-0.3-0.7c-0.8-2.4-1.6-4.8-2.4-7.2
	c-0.1-0.3-0.1-0.2,0.2-0.3c0.2,0,0.4,0,0.5,0c0.2,0,0.4-0.1,0.4-0.3c0-0.2-0.2-0.3-0.4-0.3c-0.7,0-1.4,0.1-2.1,0.1
	c-0.1,0-0.2,0-0.3,0c2.4-3.9,8.1-4.6,11.4-1.4c-1,0.1-1.5,0.9-1.3,1.8c0.1,0.4,0.4,0.8,0.6,1.2c0.5,0.8,0.8,1.7,0.7,2.7
	c-0.1,0.4-0.2,0.9-0.3,1.3c-0.4,1-0.6,2-0.9,3c0,0.1,0,0.1-0.1,0.2C38.6,390.6,38.4,390.1,38.2,389.6z M40.4,391.9
	c-0.5,0.5-1,0.9-1.6,1.2c0.1-0.4,0.3-0.8,0.4-1.1c0.7-2,1.4-4,2.1-6c0.3-0.9,0.5-1.8,0.4-2.8c0-0.1-0.1-0.1,0-0.1
	c0.5,0.9,0.8,2,0.8,3C42.7,388.4,42,390.3,40.4,391.9z"/>
<path fill-rule="evenodd" clip-rule="evenodd" fill="#FFFFFF" d="M123.8,336.6c-0.4-1.1-1.1-2.2-2-3.2c-0.8-0.9-1.8-1.7-2.8-2.1
	c-1-0.5-2.2-0.7-3.4-0.7c-1.2,0-2.3,0.2-3.4,0.7c-1,0.5-2,1.2-2.8,2.1c-0.9,1-1.6,2.1-2,3.2c-0.4,1.1-0.6,2.5-0.6,3.9
	c0,1.4,0.2,2.8,0.6,3.9c0.4,1.2,1.1,2.2,2,3.2c0.8,0.9,1.8,1.6,2.8,2.1c1,0.5,2.2,0.7,3.4,0.7c1.2,0,2.4-0.2,3.4-0.7
	c1-0.5,2-1.2,2.8-2.1c0.9-1,1.6-2.1,2-3.2c0.4-1.1,0.6-2.5,0.6-3.9C124.5,339.1,124.3,337.8,123.8,336.6z M115.7,348.5
	c-1.1,0-1.7-0.4-2.1-1.2c-0.3-0.7-0.7-2.4-0.7-6.8c0-4.3,0.4-6.1,0.7-6.8c0.4-0.8,1.1-1.2,2.1-1.2c1.1,0,1.7,0.4,2.1,1.2
	c0.3,0.7,0.7,2.4,0.7,6.8c0,4.3-0.4,6.1-0.7,6.8C117.4,348.1,116.7,348.5,115.7,348.5z"/>
<path fill="#FFFFFF" d="M86.2,343.1c0,0,0-0.1,0.1-0.1c0.6-1.1,1.2-3.1,0.9-5c0-0.3-0.1-0.5-0.2-0.8c0-0.1,0-0.2-0.1-0.2
	c0,0,0,0,0,0.1c0,0,0,0,0,0s-0.2,0.5-0.4,1.4c0.1-1.2,0-2.4-0.4-3.5c-0.2-0.5-0.4-0.9-0.6-1.3c-0.3-0.5-0.7-1-1-1.1c0,0,0,0,0,0.1
	c0,0-0.1-0.1-0.1-0.1s0,0.1,0.1,0.3c-0.6-0.9-1.5-1.4-1.5-1.4s0,0.3,0.1,0.8c-0.4-0.3-0.9-0.6-1.4-0.9c-0.1-0.1-0.3-0.1-0.4-0.2
	c-0.3-0.1-0.6-0.3-0.9-0.4c-0.2-0.1-0.3-0.1-0.5-0.1c2,1.3,2.8,2.5,3.3,3.5c-0.5-0.6-1.5-1.1-2.1-1.2c0.4,0.3,0.8,0.7,1.2,1.3
	c0.6,0.9,1.1,2.3,1.2,4c0,0.2,0,0.3,0,0.5c-0.4-1.1-1-1.5-1-1.5l0,0l0,0l0,0c0.1,1,0.2,2.4,0,3.7c0,0.1,0,0.1,0,0.2
	c-0.1,0.2-0.1,0.4-0.2,0.7c-0.1-0.5-0.3-0.8-0.3-0.8s0,0.5-0.2,1c-0.1,0.3-0.2,0.7-0.4,1.2c-0.2,0.5-0.4,0.9-0.6,1.1c0,0,0,0,0,0
	c0,0,0,0,0,0c-0.1,0.1-0.1,0.1-0.1,0.1c-0.2,0.2-0.3,0.2-0.4,0.2c0,0,0,0-0.1,0c0,0,0,0,0,0c0,0,0,0,0,0c0-0.1,0-0.1,0-0.2
	s0-0.1,0-0.2c0,0-0.1,0-0.2,0.1c-0.1,0-0.1,0.1-0.2,0.2c-0.1,0.1-0.1,0.1-0.2,0.2c0,0,0,0,0,0c0-0.1,0.1-0.2,0.1-0.2h0h0
	c-0.1,0.1-0.2,0.1-0.2,0.2c-0.1,0.1-0.3,0.3-0.4,0.4c0,0-0.1,0.1-0.1,0.1c0,0-0.1,0-0.1,0.1s-0.1,0-0.1,0c0,0,0,0,0,0c0,0,0,0-0.1,0
	c0.1,0,0.1,0,0.1-0.1c0,0,0.1-0.1,0.1-0.2c0,0,0-0.1,0-0.1l0,0l0,0c-0.1,0.1-0.4,0.3-1.1,0.4c-0.3,0-1.5,0.3-3.1-0.5
	c0,0,0.1,0,0.1,0c0.2,0,0.4-0.1,0.5,0c0,0,0.1,0,0.1,0c0,0,0.1,0,0.1,0l0,0l0,0c-0.2-0.2-0.5-0.2-0.8-0.3c-0.2,0-0.4-0.1-0.6-0.1
	c-0.3-0.1-0.8-0.6-1.1-0.9c0,0-0.1-0.1-0.1-0.1c0,0,0,0,0,0c0.1,0,0.3,0.1,0.4,0.1c0,0,0,0,0.1,0c0,0,0,0,0,0c0.1,0,0.3,0,0.4,0
	c0.2,0,0.3,0,0.5,0c0.5,0,0.9-0.1,1.3-0.3c0.2-0.1,0.4-0.2,0.6-0.3c0.5-0.4,1.2-0.9,1.6-0.8c0,0,0,0,0,0c0.1,0,0.1,0,0.1,0
	c0.1,0,0.2,0,0.2-0.1c0.1-0.1,0.1-0.2,0.1-0.3c0-0.1,0-0.1,0-0.2c0,0-0.1-0.1-0.1-0.1c0,0,0,0-0.1-0.1c0,0-0.1-0.1-0.2-0.1
	c0,0-0.1,0-0.1-0.1c-0.1,0-0.1-0.1-0.2-0.1c-0.2-0.1-0.4-0.2-0.7-0.2c-0.2,0-0.3,0-0.5,0c-0.1,0-0.2,0-0.4,0.1
	c-0.8,0.2-1.5,0.8-2.6,0.4c-0.1,0-0.1-0.1-0.2-0.1c0,0,0,0,0,0c0,0,0.1,0,0.2,0c0,0,0,0,0,0c0,0-0.1,0-0.1,0c-0.1,0-0.1-0.1-0.2-0.1
	c0,0-0.1,0-0.1,0c-0.1,0-0.1-0.1-0.2-0.1c-0.1,0-0.1-0.1-0.1-0.1c0,0,0.1,0,0.1,0c0,0,0,0,0,0h0c0,0,0,0,0,0
	c-0.3-0.2-0.5-0.3-0.6-0.4c-0.2-0.2-0.3-0.3-0.3-0.5c0-0.1,0-0.1,0-0.2c0,0,0-0.1,0-0.1c0,0,0-0.1,0-0.1c0,0,0,0,0,0
	c0-0.1,0-0.3,0.1-0.4c0.1-0.2,0.2-0.4,0.3-0.4c0,0,0,0,0.1,0c0,0,0,0,0,0c0.2,0.1,0.2,0.1,0.2,0.1s-0.1-0.1-0.1-0.2c0,0,0,0,0,0
	c0.1,0,0.4,0.1,0.5,0.2c0.1,0,0.2,0.1,0.2,0.1c0,0,0.1,0.1,0.1,0.1s0,0,0-0.1c0,0-0.1-0.1-0.2-0.2c0,0-0.1-0.1-0.1-0.1c0,0,0,0,0,0
	c0.1,0,0.2,0.1,0.3,0.2c0-0.1,0-0.2,0.1-0.3c0,0,0-0.1,0-0.1s0-0.1,0-0.1c0-0.1,0-0.1,0-0.2c0-0.1,0-0.2,0-0.2c0-0.1,0-0.1,0-0.1
	c0-0.1,0-0.1,0.1,0c0,0,0-0.1-0.1-0.1c0,0,0,0,0,0c0.3-0.4,1.6-1,1.9-1.3c0,0,0.1-0.1,0.1-0.1c0,0,0,0,0,0c0.2-0.1,0.2-0.3,0.3-0.4
	c0.1-0.2,0.2-0.6-0.1-0.7c-0.2,0-0.4-0.1-0.7-0.1c0,0,0,0-0.1,0c0,0,0,0-0.1,0c-0.2,0-0.5,0-0.9,0c-0.1,0-0.2,0-0.2,0c0,0,0,0,0,0
	c-0.5-0.1-0.8-0.6-0.9-0.8c0,0,0,0,0,0c0,0,0,0,0,0c0.1-0.2,0.1-0.4,0.2-0.5c0.2-0.4,0.5-0.8,0.8-1.2c0.1-0.1,0.1-0.1,0.2-0.2
	c0,0-0.1,0-0.1,0c0,0,0,0,0,0c0,0,0.1,0,0.1-0.1c0,0,0.1,0,0.1-0.1c0.1,0,0.1-0.1,0.1-0.1c0,0,0,0,0,0c0,0,0,0,0,0c0,0-0.1,0-0.2,0
	c0,0-0.1,0-0.1,0c-0.1,0-0.1,0-0.2,0c0,0-0.1,0-0.1,0c0,0,0,0-0.1,0c-0.3,0.1-0.4,0.1-0.5,0.2c0,0,0,0,0,0c0.1-0.1,0.3-0.2,0.2-0.2
	c-0.3,0.1-0.7,0.3-1.1,0.5c0,0,0-0.1,0-0.1c0,0-0.1,0.1-0.2,0.1c-0.1,0-0.1,0.1-0.2,0.1c0,0-0.1,0.1-0.1,0.1
	c-0.1,0.1-0.1,0.1-0.2,0.2c0,0,0,0.1,0,0.1c0,0,0,0,0,0c0,0,0-0.1,0-0.1c-0.1,0-0.1,0.1-0.2,0.2c-0.1,0.1-0.1,0.1-0.1,0.2
	c0,0,0,0,0,0c0,0,0,0,0,0c-1-0.2-1.8-0.2-2.5,0c-0.2-0.2-0.6-0.5-0.9-1c0,0,0,0,0,0c0,0,0,0,0,0c0,0,0,0,0,0c0,0,0,0,0,0
	c-0.2-0.3-0.3-0.8-0.3-1.2c0,0,0,0,0,0c0,0,0,0,0,0c0,0-0.1,0-0.2,0.1c0,0,0,0,0,0c0,0,0,0.1-0.1,0.1c0,0,0,0,0,0.1
	c0,0-0.1,0.1-0.1,0.2c0,0.1,0,0.1-0.1,0.2c0,0.1-0.1,0.2-0.1,0.2c0,0,0-0.2,0-0.2c0,0,0,0,0,0c0,0,0,0,0,0c0,0,0,0,0,0.1
	c0,0.1-0.1,0.2-0.1,0.2c0,0.1,0,0.1-0.1,0.2c0,0,0,0,0,0c0,0,0,0,0,0c0,0,0,0,0,0.1c0,0,0,0,0,0c0,0,0-0.1,0-0.1c0,0,0,0,0,0
	c0,0,0,0,0,0c0,0,0,0,0,0c0,0,0,0,0,0c0,0,0,0,0,0c0,0,0,0,0,0.1c0,0,0,0.1,0,0.1c0,0,0,0,0,0c0,0.1,0,0.1-0.1,0.2c0,0,0,0,0,0
	c0,0,0,0.1,0,0.1c0,0,0,0,0,0c0,0,0,0,0,0c0,0.1,0,0.1-0.1,0.2c0,0,0,0,0,0c0,0.1-0.1,0.3-0.1,0.5c0,0,0,0.1,0,0.1
	c-0.1,0.6-0.1,1.2,0,1.3c0,0,0,0,0,0c0,0,0,0,0,0c0,0,0,0,0,0c0,0,0,0,0,0c0,0,0,0,0,0c-0.1,0.1-0.2,0.3-0.3,0.4
	c-0.1,0.1-0.1,0.2-0.1,0.2c-0.4,0.6-0.7,1.6-1,3.3c0,0,0,0,0,0c0,0,0,0,0,0c0,0,0,0,0-0.1c0,0,0,0,0,0.1c0,0,0,0,0,0c0,0,0,0,0,0
	c0,0,0-0.1,0.1-0.2c0,0,0,0,0,0c0.1-0.2,0.2-0.6,0.4-1c0,0,0,0,0,0c0,0,0,0,0,0c0,0,0,0,0,0c-0.2,0.6-0.3,1.3-0.4,2.4c0,0,0,0,0,0
	c0,0.1,0,0.2,0,0.3c0,0,0,0,0,0c0,0.1,0,0.2,0,0.3c0,0,0,0,0,0c0,0.3,0,0.6,0,1c0,0,0,0,0,0c0,0,0,0,0,0c0,0,0,0,0-0.1
	c0,0,0,0,0,0.1c0,0,0,0,0,0c0,0,0,0,0,0c0,0,0-0.1,0-0.3c0,0,0,0,0,0c0-0.1,0.1-0.3,0.1-0.5c0-0.1,0-0.2,0.1-0.3c0,0,0,0.1,0,0.1
	c0,0,0,0,0,0c0,0,0,0,0,0c0,0.1,0,0.1,0,0.2c0,0,0,0,0,0.1c0,0.1,0,0.1,0,0.2c0,0,0,0,0,0.1c0,0.1,0,0.1,0,0.2c0,0,0,0.1,0,0.1
	c0,0.1,0,0.1,0,0.2c0,0,0,0.1,0,0.1c0,0.1,0,0.1,0,0.2c0,0,0,0.1,0,0.1c0,0,0,0.1,0,0.1c0,0,0,0.1,0,0.1c0,0,0,0.1,0,0.1
	c0,0.1,0,0.1,0,0.2c0,0,0,0.1,0,0.1c0,0.1,0,0.1,0.1,0.2c0,0,0,0.1,0,0.1c0,0.1,0,0.1,0.1,0.2c0,0,0,0,0,0.1c0,0.1,0.1,0.2,0.1,0.2
	c0,0,0,0,0,0c0.2,0.5,0.4,1,0.7,1.5c0.7,1.3,2.7,4.3,7.7,5.4c0,0,0,0,0,0c0,0,0,0,0,0c-0.1,0-0.3-0.1-0.4-0.1
	c-0.3-0.2-0.5-0.3-0.5-0.3s0.1,0,0.3,0.1c0,0,0,0,0,0c0.6,0.2,1.9,0.5,2.9,0.5c0,0,0,0,0,0c0,0,0,0,0,0c-0.1,0-0.2,0-0.3-0.1
	c-0.2-0.1-0.2-0.2-0.2-0.2s0,0,0.1,0c0,0,0,0,0,0c0.7,0,3.9,0,5.7-1.4c0.4-0.3,0.7-0.7,0.8-1.1c0.2-0.1,0.4-0.2,0.6-0.4
	c0.5-0.4,1.2-0.8,1.7-1.5c0.2-0.3,0.4-0.5,0.5-0.7c0,0,0,0,0,0c0,0,0,0,0,0c0,0,0,0,0-0.1c0,0,0-0.1,0.1-0.1
	c0.2-0.4,0.3-0.8,0.4-1.3c0,0.1,0,0.1,0,0.2c0-0.1,0-0.1,0-0.2c0,0,0,0,0,0.1C86.3,343.6,86.3,343.3,86.2,343.1z M84.6,332.5
	C84.6,332.5,84.6,332.5,84.6,332.5C84.6,332.5,84.6,332.5,84.6,332.5C84.6,332.5,84.6,332.5,84.6,332.5z M72.6,338.8
	C72.6,338.8,72.6,338.8,72.6,338.8C72.6,338.8,72.6,338.8,72.6,338.8C72.6,338.8,72.6,338.8,72.6,338.8z"/>
<g>
	<circle fill="#FFFFFF" cx="35" cy="340.6" r="3.7"/>
	<g>
		<path fill="#FFFFFF" d="M35.9,336.2h7.7C42.2,336.2,37.1,336.2,35.9,336.2z"/>
		<path fill="#FFFFFF" d="M44.3,336.8h-6.9c0.8,0.5,1.1,1,1.5,1.6c1.1,2.4,0.2,3.9,0.2,3.9s-3.9,6.8-4.8,8.2c6.7,0.3,9.4-5,9.4-5
			C45.8,341.5,44.8,338.1,44.3,336.8z"/>
	</g>
	<g>
		<path fill="#FFFFFF" d="M26.7,335C26.7,335,26.7,335,26.7,335c0,0,3.3,5.7,4.1,7c0,0,0,0,0,0L26.7,335z"/>
		<path fill="#FFFFFF" d="M35,330.5c-4.6,0.2-7,2.7-7.9,3.9l3.5,6c0-0.9,0.3-1.5,0.6-2.1c1.5-2.2,3.3-2.1,3.3-2.1s7.9,0,9.5,0
			C40.9,330.3,35,330.5,35,330.5z"/>
	</g>
	<g>
		<path fill="#FFFFFF" d="M37.1,344.5c-0.8,0.4-1.5,0.5-2.1,0.5c-2.7-0.2-3.5-1.8-3.5-1.8s-3.9-6.8-4.8-8.2
			c-3.6,5.7-0.4,10.6-0.4,10.6c2.5,3.9,5.9,4.7,7.3,4.9L37.1,344.5z"/>
		<path fill="#FFFFFF" d="M34.3,350.5C34.3,350.5,34.3,350.5,34.3,350.5c0,0,3.3-5.7,4.1-7c0,0,0,0,0,0L34.3,350.5z"/>
	</g>
</g>
</svg>
